<?xml version="1.0" standalone="no"?>
<!DOCTYPE svg PUBLIC "-//W3C//DTD SVG 20010904//EN"
 "http://www.w3.org/TR/2001/REC-SVG-20010904/DTD/svg10.dtd">
<svg version="1.0" xmlns="http://www.w3.org/2000/svg"
 width="1600.000000pt" height="1462.000000pt" viewBox="0 0 1600.000000 1462.000000"
 preserveAspectRatio="xMidYMid meet">

<g transform="translate(0.000000,1462.000000) scale(0.100000,-0.100000)"
fill="#000000" stroke="none">
<path d="M10160 13750 c-13 -8 -12 -10 3 -10 9 0 17 5 17 10 0 12 -1 12 -20 0z"/>
<path d="M10110 13726 c-14 -8 -41 -17 -60 -21 -41 -9 -178 -72 -203 -93 -9
-8 -26 -20 -37 -26 -10 -6 -58 -35 -105 -63 -48 -29 -89 -53 -92 -53 -3 0 -21
-16 -40 -35 -19 -19 -40 -35 -48 -35 -7 0 -26 -14 -42 -31 -70 -78 -173 -173
-223 -207 -30 -20 -56 -40 -58 -44 -2 -5 -9 -8 -16 -8 -7 0 -21 -10 -32 -21
-10 -12 -44 -40 -74 -62 -30 -22 -59 -45 -65 -51 -14 -15 -93 -66 -103 -66 -5
0 -19 -11 -32 -25 -13 -14 -30 -25 -37 -25 -8 0 -16 -7 -19 -15 -4 -8 -12 -15
-19 -15 -13 0 -33 -15 -96 -70 -46 -41 -202 -150 -214 -150 -2 0 -52 -31 -112
-69 -167 -104 -144 -101 -213 -31 -34 33 -63 60 -67 60 -3 0 -21 16 -42 35
-49 48 -109 101 -148 132 -18 14 -33 32 -33 40 0 7 -7 16 -15 19 -8 4 -13 10
-10 14 6 10 -83 88 -127 112 -17 10 -48 33 -68 53 -20 19 -39 35 -43 35 -4 0
-18 9 -30 21 -12 11 -39 28 -59 36 -21 8 -38 19 -38 23 0 5 -23 13 -51 19 -51
11 -89 3 -89 -20 0 -5 -11 -14 -24 -19 -20 -7 -25 -17 -28 -62 -4 -43 -1 -56
14 -67 10 -7 18 -19 18 -26 0 -7 16 -27 36 -46 19 -19 49 -57 65 -86 16 -28
36 -53 43 -56 7 -3 16 -21 19 -41 9 -53 65 -161 118 -224 5 -7 18 -30 27 -51
16 -34 74 -104 125 -150 9 -8 17 -21 17 -27 0 -6 11 -19 25 -28 27 -18 33 -36
12 -36 -8 0 -22 -9 -32 -20 -10 -11 -26 -20 -37 -20 -10 0 -18 -4 -18 -10 0
-5 -7 -10 -16 -10 -9 0 -33 -13 -54 -30 -21 -16 -45 -30 -54 -30 -9 0 -16 -4
-16 -10 0 -5 -17 -18 -38 -29 -21 -11 -44 -27 -51 -35 -8 -9 -21 -16 -31 -16
-10 0 -23 -7 -30 -15 -7 -8 -21 -15 -31 -15 -11 0 -19 -3 -19 -7 0 -9 -49 -33
-67 -33 -14 0 -93 -52 -133 -87 -13 -13 -30 -23 -37 -23 -7 0 -13 -4 -13 -10
0 -5 -9 -10 -19 -10 -11 0 -26 -7 -35 -15 -8 -8 -22 -15 -30 -15 -9 0 -16 -6
-16 -13 0 -6 -15 -18 -32 -26 -18 -8 -35 -17 -38 -21 -3 -3 -25 -18 -50 -32
-25 -14 -54 -35 -64 -47 -11 -12 -24 -21 -30 -21 -6 0 -25 -12 -41 -27 -43
-40 -95 -74 -105 -68 -4 3 -10 -1 -13 -9 -3 -7 -22 -17 -42 -20 -20 -4 -49
-15 -65 -24 -51 -31 -235 -157 -241 -165 -4 -5 -16 -14 -27 -20 -12 -7 -67
-40 -122 -74 -55 -35 -103 -63 -106 -63 -7 0 -29 -18 -71 -57 -19 -18 -38 -33
-43 -33 -4 0 -23 -13 -41 -30 -19 -16 -37 -30 -41 -30 -4 0 -40 -25 -79 -55
-39 -30 -76 -55 -83 -55 -6 0 -19 -8 -27 -19 -9 -10 -42 -35 -73 -56 -31 -20
-56 -41 -56 -46 0 -5 -8 -9 -19 -9 -10 0 -29 -8 -42 -18 -13 -11 -62 -45 -109
-77 -47 -32 -87 -61 -90 -65 -3 -3 -21 -14 -40 -23 -19 -9 -48 -25 -65 -37
-16 -11 -40 -20 -53 -20 -12 0 -41 -12 -65 -27 -23 -15 -45 -26 -50 -25 -4 1
-22 -13 -40 -31 -17 -18 -40 -36 -49 -40 -10 -3 -18 -11 -18 -17 0 -5 -6 -10
-12 -10 -7 0 -33 -16 -57 -35 -24 -19 -50 -35 -57 -35 -8 0 -14 -4 -14 -9 0
-5 -10 -13 -22 -17 -13 -3 -30 -14 -39 -23 -9 -9 -48 -38 -88 -66 -39 -27 -95
-68 -123 -89 -29 -22 -84 -61 -122 -87 -39 -25 -81 -55 -93 -65 -12 -11 -54
-41 -93 -68 -38 -27 -70 -53 -70 -58 0 -4 -6 -8 -12 -8 -7 0 -65 -41 -128 -90
-63 -50 -138 -106 -167 -125 -29 -19 -63 -46 -75 -58 -38 -38 -403 -297 -419
-297 -5 0 -9 -4 -9 -9 0 -4 -28 -27 -62 -50 -59 -40 -63 -41 -144 -41 -46 0
-85 -4 -88 -9 -10 -16 -144 -43 -188 -39 -24 3 -106 -6 -183 -19 -77 -13 -151
-24 -165 -24 -68 -3 -174 -33 -202 -58 -26 -23 -28 -30 -22 -68 5 -31 17 -52
51 -85 l44 -43 97 2 c64 2 99 -2 103 -9 6 -9 12 -8 23 1 13 11 22 11 48 -2 18
-9 36 -13 40 -11 4 3 8 -2 8 -10 0 -9 -4 -16 -9 -16 -6 0 -22 -11 -37 -25 -15
-14 -30 -25 -33 -25 -3 0 -19 -11 -35 -25 -16 -14 -32 -25 -35 -25 -3 0 -22
-15 -42 -34 -21 -18 -52 -43 -70 -54 -19 -12 -49 -37 -68 -57 -19 -19 -38 -35
-44 -35 -5 0 -22 -12 -37 -27 -64 -65 -184 -169 -208 -182 -15 -7 -28 -14 -29
-15 -1 0 -4 -20 -7 -42 -5 -31 -3 -42 6 -41 39 1 48 -4 48 -29 0 -39 18 -66
40 -59 11 3 22 0 27 -8 16 -28 49 -29 66 -3 11 17 29 26 63 31 67 10 175 44
191 61 8 8 24 14 37 14 12 0 26 4 32 9 22 21 168 91 190 91 13 0 24 5 24 10 0
6 7 10 15 10 8 0 15 4 15 10 0 5 16 12 35 16 21 4 37 13 40 25 7 22 21 25 27
7 3 -8 27 1 69 28 35 22 79 47 96 55 18 7 33 17 33 20 0 3 18 12 39 19 22 7
42 18 45 25 2 7 21 15 40 19 20 4 36 11 36 16 0 4 21 21 48 36 26 15 63 40 82
56 19 15 42 28 52 28 9 0 25 10 35 23 19 22 35 34 87 63 23 13 34 14 48 5 10
-6 25 -11 34 -11 21 0 45 -32 34 -45 -8 -10 -13 -46 -11 -72 1 -7 7 -13 15
-13 20 0 31 -51 13 -62 -12 -6 -12 -14 1 -55 12 -35 13 -48 4 -51 -7 -2 -12
-16 -12 -32 0 -16 -5 -30 -11 -32 -16 -5 7 -58 26 -58 23 0 18 -30 -7 -40 -13
-5 -20 -9 -16 -9 4 -1 3 -14 -2 -31 -5 -16 -5 -30 0 -30 4 0 15 -11 23 -24 18
-26 12 -66 -9 -66 -8 0 -14 -4 -14 -10 0 -5 4 -10 9 -10 17 0 21 -33 6 -50
-13 -14 -13 -18 3 -34 12 -14 14 -20 5 -23 -15 -6 -17 -49 -3 -58 6 -4 10 -18
10 -33 0 -15 2 -53 4 -84 4 -47 1 -58 -11 -58 -12 0 -13 -3 -3 -15 14 -17 20
-53 20 -119 0 -26 4 -53 8 -60 4 -6 8 -76 9 -156 1 -80 10 -208 18 -285 12
-102 13 -145 5 -158 -8 -14 -7 -21 5 -33 19 -19 19 -29 -1 -49 -12 -12 -13
-19 -5 -29 7 -8 16 -65 21 -127 5 -63 13 -132 17 -154 4 -22 8 -65 9 -95 1
-30 7 -113 13 -185 6 -71 12 -151 12 -177 1 -27 4 -48 8 -48 12 0 45 -374 42
-467 -1 -24 2 -51 7 -60 5 -10 12 -70 16 -133 3 -63 8 -126 11 -139 2 -13 0
-33 -6 -44 -8 -13 -8 -22 -1 -26 6 -4 11 -31 11 -61 0 -30 2 -80 5 -110 20
-228 25 -309 31 -510 3 -96 10 -198 15 -227 5 -29 7 -83 6 -120 -2 -37 -1 -72
2 -77 10 -19 16 -109 12 -206 -2 -36 2 -75 8 -87 7 -13 12 -85 12 -189 1 -215
5 -338 12 -350 8 -12 22 -178 20 -231 -1 -24 2 -43 7 -43 5 0 11 -51 14 -113
3 -61 11 -137 17 -167 5 -30 15 -98 20 -150 5 -52 15 -111 22 -130 12 -38 13
-44 28 -140 6 -36 15 -78 21 -93 7 -15 9 -30 6 -33 -2 -3 -36 -9 -73 -15 -38
-5 -96 -14 -129 -20 -33 -6 -71 -13 -85 -15 -90 -13 -157 -25 -240 -43 -109
-23 -136 -28 -199 -36 -25 -4 -53 -9 -61 -12 -8 -3 -26 -7 -40 -8 -14 -2 -45
-8 -70 -15 -72 -19 -272 -61 -305 -64 -16 -2 -55 -10 -85 -19 -97 -26 -194
-47 -222 -47 -15 0 -30 -4 -33 -10 -3 -5 -18 -10 -32 -10 -15 0 -42 -5 -60
-12 -24 -9 -39 -9 -51 -2 -13 8 -31 7 -69 -5 -28 -9 -55 -20 -59 -24 -4 -4
-10 -28 -12 -53 -3 -36 2 -53 23 -87 15 -23 40 -51 55 -62 183 -130 201 -138
250 -110 14 8 39 14 57 15 17 0 35 5 39 11 5 8 9 8 14 -1 6 -9 16 -10 41 -2
33 10 152 22 274 27 80 3 217 23 250 35 41 15 211 41 228 34 8 -3 44 1 79 10
81 19 118 25 118 18 0 -3 -17 -28 -38 -56 -21 -28 -43 -64 -49 -81 -6 -16 -14
-38 -18 -47 -6 -16 -1 -18 46 -18 46 0 57 4 86 32 28 27 36 30 43 18 8 -12 10
-12 16 3 3 9 12 17 18 17 7 0 23 11 36 25 13 14 29 25 36 25 7 0 26 11 42 25
17 14 33 25 37 25 4 0 16 11 27 25 11 14 24 25 31 25 6 0 21 9 33 21 13 12 40
22 70 25 27 2 85 10 129 16 44 7 87 12 95 11 8 -1 33 2 55 7 22 4 75 11 119
14 43 4 87 11 97 17 10 5 35 9 54 7 35 -2 46 -12 23 -21 -18 -8 31 -8 74 -1
23 4 38 13 41 24 4 17 54 30 133 35 11 1 26 5 33 10 8 4 27 8 42 7 16 0 31 4
34 9 4 5 16 9 28 9 20 -1 20 -2 -5 -16 -61 -32 -14 -47 50 -16 20 10 45 17 55
14 9 -2 17 1 17 7 0 10 39 9 57 -2 6 -4 14 -3 17 2 3 4 32 9 63 10 45 0 62 5
75 21 19 23 33 26 25 5 -4 -8 -3 -16 1 -19 14 -8 138 14 169 31 26 14 36 15
57 5 17 -7 27 -8 31 -1 4 5 15 7 25 4 10 -3 21 -1 25 5 4 6 36 8 88 5 74 -4
167 6 207 22 8 4 40 8 70 9 82 3 183 12 290 24 52 7 110 11 129 10 18 0 39 4
47 11 9 7 32 9 68 5 34 -5 56 -3 61 3 3 6 17 11 31 11 13 0 24 6 24 13 0 8 3
8 9 -2 6 -9 18 -12 37 -7 16 4 57 6 92 6 44 -1 64 3 67 12 4 10 34 14 116 16
109 2 164 7 182 19 5 3 44 7 86 9 42 1 78 3 81 4 3 1 17 1 32 0 15 -1 36 4 48
10 12 6 61 13 108 15 48 1 89 4 92 5 3 1 17 1 32 0 15 -1 54 7 88 17 51 15 60
21 60 40 0 28 10 29 41 4 l23 -18 -29 -27 -29 -27 47 4 c26 2 56 12 66 21 14
13 20 14 23 5 3 -10 16 -10 59 -1 30 6 81 9 114 7 69 -5 143 13 110 26 -19 7
-19 8 -1 8 10 1 24 -5 30 -13 9 -11 26 -13 86 -7 41 5 94 7 117 6 23 -1 44 2
45 7 5 13 136 19 143 8 3 -6 12 -10 18 -10 7 0 6 4 -3 10 -13 8 -12 10 3 10 9
0 17 4 17 8 0 4 20 8 45 8 25 0 45 -4 45 -8 0 -4 -8 -8 -17 -8 -9 0 -13 -3 -9
-7 11 -11 86 -14 86 -3 0 6 9 6 24 0 13 -5 26 -7 29 -4 2 3 56 7 118 10 63 3
129 10 147 16 18 5 97 9 175 7 171 -3 226 -1 240 8 17 10 58 10 64 -1 4 -5 16
3 29 19 21 27 22 27 28 7 4 -13 13 -19 21 -16 8 3 11 12 8 21 -5 12 1 13 33 8
22 -4 49 -11 61 -17 26 -13 45 -2 23 12 -13 8 -13 10 1 10 9 0 20 -8 24 -17 6
-17 7 -17 20 1 12 16 15 16 20 4 5 -13 15 -13 84 0 l79 14 31 -28 c30 -26 102
-137 147 -225 11 -22 25 -44 31 -47 5 -4 22 -29 38 -57 15 -27 50 -85 78 -127
l51 -77 22 92 c13 51 25 111 27 132 6 53 17 104 27 135 5 14 12 43 15 65 6 33
9 37 15 20 5 -11 9 -35 9 -53 1 -45 31 -108 42 -90 5 7 9 23 9 36 0 29 4 28
54 -10 51 -41 66 -55 66 -64 0 -6 67 -72 152 -150 13 -12 30 -31 38 -43 l15
-22 49 21 49 21 -23 21 c-27 25 -80 107 -80 123 0 8 12 10 37 6 29 -5 38 -11
38 -26 0 -11 15 -29 35 -43 19 -13 39 -30 43 -38 4 -8 12 -14 17 -14 5 0 20
-11 34 -25 27 -27 62 -33 69 -12 3 9 11 9 38 -1 19 -8 52 -18 74 -22 75 -16
158 -64 229 -131 22 -22 59 -45 82 -52 27 -8 53 -26 75 -52 45 -53 105 -106
153 -134 46 -26 55 -23 21 9 -23 22 -34 50 -18 50 4 0 24 -12 45 -26 46 -32
59 -26 24 11 -21 22 -23 31 -15 47 13 24 5 48 -16 48 -16 0 -70 51 -115 108
-26 34 -37 62 -39 100 -1 22 0 23 77 17 42 -4 99 -14 125 -22 28 -8 62 -12 81
-9 22 4 45 0 73 -14 23 -11 47 -20 53 -20 6 0 23 -8 38 -17 19 -12 14 -4 -15
26 -47 46 -58 73 -19 48 23 -15 24 -15 19 3 -7 25 2 25 34 0 14 -11 33 -20 43
-20 9 0 35 -16 57 -35 42 -36 65 -47 43 -20 -24 28 6 15 40 -18 50 -48 150
-128 150 -120 0 3 -30 39 -67 79 -38 39 -78 86 -91 102 -32 43 -109 93 -151
99 -64 8 -82 13 -76 22 4 8 -37 65 -79 106 -22 23 -20 26 10 15 15 -6 42 -7
62 -4 34 7 34 7 15 23 -11 9 -30 32 -44 51 -13 19 -30 41 -37 49 -12 12 -5 18
45 42 32 16 64 28 71 29 24 0 11 17 -25 33 -21 9 -60 21 -87 27 -67 15 -90 28
-77 44 11 13 5 17 -119 68 -25 10 -52 18 -61 18 -17 0 -33 26 -24 40 3 4 -6
11 -19 14 -13 3 -44 24 -67 46 l-44 40 180 -2 c99 -2 319 -2 489 0 l308 2 -16
25 c-9 13 -16 28 -16 33 0 11 148 58 173 55 13 -2 17 5 17 31 0 48 28 68 108
78 37 5 78 11 92 14 14 2 78 7 142 11 81 4 118 10 122 19 5 14 -20 27 -35 18
-5 -3 -9 2 -9 10 0 9 8 16 18 16 10 0 22 3 26 7 14 15 113 20 415 23 l65 1
-22 22 c-20 20 -34 22 -144 25 -93 3 -123 1 -129 -10 -5 -7 -9 -8 -9 -2 0 14
15 13 -264 19 -131 2 -244 9 -250 13 -6 5 -21 6 -34 3 -12 -3 -75 -4 -140 -1
-64 3 -133 3 -152 0 -19 -3 -48 -1 -63 5 -18 6 -30 6 -35 0 -11 -15 -28 -16
-421 -16 -161 0 -337 -4 -390 -9 -53 -5 -183 -10 -289 -10 l-194 0 -30 30
c-16 17 -33 30 -37 30 -4 0 -14 13 -24 29 -9 16 -33 49 -53 73 -53 63 -125
147 -154 178 -14 15 -38 44 -55 65 -16 20 -42 50 -56 67 -23 27 -25 35 -17 77
5 25 11 66 14 91 4 25 10 50 14 55 4 6 10 31 13 57 4 26 15 85 26 130 10 46
25 117 32 158 7 41 16 86 21 100 5 13 13 54 18 90 5 36 14 85 20 110 6 25 17
77 25 115 7 39 18 93 24 120 13 65 50 254 54 280 1 11 5 25 9 30 3 6 9 33 12
60 4 28 11 68 16 90 5 22 10 55 10 73 0 17 5 32 10 32 6 0 10 13 10 30 0 16 7
55 15 87 8 31 15 72 15 90 0 18 5 33 10 33 6 0 10 15 10 33 1 17 7 61 15 97 8
36 14 80 15 98 0 17 4 32 9 32 5 0 13 30 16 68 4 37 11 74 16 83 4 9 9 35 10
57 2 23 6 42 10 42 3 0 9 19 12 43 3 23 9 62 12 87 4 25 10 54 15 65 5 11 16
67 25 125 9 57 21 110 27 117 6 7 8 26 6 43 -3 16 -1 30 2 30 9 0 21 67 25
135 1 27 8 51 14 53 16 5 13 22 -4 22 -8 0 -15 5 -15 10 0 6 6 10 14 10 13 0
35 83 42 154 1 16 8 32 14 36 9 6 9 9 -1 12 -11 4 -12 9 -1 27 6 11 12 32 12
45 0 14 4 27 9 30 5 3 12 34 16 68 4 35 11 68 15 73 4 6 10 30 13 55 7 58 31
181 39 200 4 8 9 31 11 50 10 74 31 175 37 180 5 4 19 78 37 195 3 22 8 42 12
45 13 9 34 193 32 278 -1 79 0 82 18 72 30 -15 39 9 11 30 -24 18 -24 20 12
120 8 25 19 125 22 216 2 50 21 77 45 65 9 -5 22 -6 29 -4 6 3 12 0 12 -7 0
-6 -4 -9 -9 -6 -12 8 -21 -19 -21 -65 0 -21 -4 -39 -9 -39 -14 0 -31 -78 -17
-84 6 -2 3 -5 -6 -5 -37 -2 -8 -41 30 -41 13 0 21 -4 18 -8 -5 -8 8 -22 78
-81 27 -24 28 -24 22 -4 -7 21 -5 21 26 12 18 -5 34 -9 35 -9 1 0 0 -7 -4 -16
-5 -13 -7 -13 -14 -2 -7 10 -9 10 -9 -3 0 -16 89 -104 165 -164 85 -66 192
-99 230 -71 16 13 17 15 4 16 -35 0 -158 76 -159 98 0 18 20 15 58 -8 28 -17
37 -19 50 -8 13 11 14 11 10 -2 -6 -19 34 -53 44 -37 4 6 10 -1 13 -16 5 -16
14 -27 25 -27 9 0 35 -13 57 -29 58 -42 122 -71 129 -59 4 6 22 7 43 4 20 -3
59 -9 86 -12 28 -3 57 -12 65 -19 8 -7 28 -15 44 -19 16 -4 65 -25 107 -46 43
-21 94 -42 113 -46 20 -3 40 -12 47 -20 6 -8 34 -21 62 -29 28 -8 54 -20 58
-27 6 -9 11 -9 22 1 12 9 28 7 83 -15 38 -14 91 -37 118 -51 29 -15 65 -26 90
-26 22 0 52 -7 65 -16 16 -10 52 -16 109 -18 55 -2 93 -8 108 -18 33 -21 42
-19 16 5 -12 11 -27 20 -35 20 -17 0 -47 32 -47 49 0 9 15 11 58 6 31 -4 61
-11 66 -16 5 -4 17 -4 28 2 13 7 18 6 18 -3 0 -9 3 -9 11 -1 7 7 18 8 28 3 39
-19 108 -49 131 -55 13 -4 29 -13 36 -19 10 -10 69 -48 114 -74 53 -31 194
-92 213 -92 13 0 32 -8 43 -17 10 -10 31 -24 47 -32 15 -8 69 -43 119 -77 93
-63 124 -75 75 -30 -15 14 -27 29 -27 35 0 5 -9 13 -20 16 -11 3 -20 13 -20
21 0 8 -6 14 -13 14 -8 0 -22 10 -33 21 -10 12 -64 58 -119 101 -55 44 -111
89 -125 101 -14 12 -50 42 -80 66 -30 25 -80 71 -111 103 -31 32 -60 58 -65
58 -5 0 -47 36 -94 80 -47 44 -88 80 -92 80 -5 0 -8 6 -8 13 0 8 -11 20 -25
27 -14 7 -25 19 -25 27 0 7 -5 13 -11 13 -6 0 -35 22 -66 49 -30 27 -67 51
-81 54 -15 4 -44 22 -65 42 -21 19 -44 35 -50 33 -16 -2 -117 44 -117 54 0 4
-8 8 -17 8 -10 0 -56 34 -103 75 -46 41 -93 75 -102 75 -10 0 -18 4 -18 9 0
10 -95 74 -170 114 -30 16 -57 32 -60 36 -10 13 -146 128 -185 156 -79 58 -78
55 -54 106 36 75 113 145 216 195 51 24 96 44 101 44 13 0 28 20 36 47 7 20 3
23 -34 29 -47 8 -60 26 -36 53 21 23 20 31 -4 31 -11 0 -20 6 -20 14 0 21 -24
26 -195 42 -33 3 -78 13 -100 23 -22 10 -64 19 -93 20 -28 0 -62 7 -75 15 -12
7 -38 17 -57 20 -87 18 -231 39 -287 43 -35 3 -63 8 -63 12 0 5 -37 11 -82 15
-79 6 -132 18 -170 37 -10 5 -29 9 -43 9 -18 0 -26 7 -31 24 -3 14 -3 30 1 37
4 6 4 14 -1 18 -5 3 -18 19 -28 34 -17 29 -17 29 3 22 13 -4 27 -1 37 9 8 9
11 16 5 16 -5 0 -13 -5 -16 -10 -5 -8 -11 -7 -21 1 -18 15 -18 29 1 29 8 0 15
4 15 9 0 10 32 44 190 206 42 44 86 94 96 110 18 31 9 23 -88 -67 -10 -10 -22
-18 -28 -18 -5 0 -12 -11 -16 -25 -3 -14 -11 -25 -16 -25 -6 0 -8 7 -5 14 4
10 1 13 -9 9 -7 -3 -14 0 -14 6 0 7 8 14 18 18 9 3 44 34 77 68 33 33 81 78
108 99 52 42 63 65 20 43 -16 -8 -40 -20 -54 -27 -15 -7 -33 -23 -40 -36 -7
-13 -18 -24 -25 -24 -6 0 -15 -12 -19 -27 -4 -18 -9 -23 -14 -15 -8 13 -65
-33 -171 -138 -66 -65 -91 -86 -116 -94 -11 -4 -36 -22 -57 -41 -29 -26 -43
-32 -56 -26 -27 15 -141 138 -141 154 0 6 -28 35 -90 91 -8 7 -49 39 -90 71
-41 31 -79 63 -83 71 -4 8 -14 14 -21 14 -7 0 -26 12 -43 28 -66 58 -91 78
-136 110 -26 17 -52 32 -57 32 -5 0 -12 9 -15 20 -3 11 -13 20 -21 20 -8 0
-17 7 -20 15 -4 8 -10 15 -15 15 -4 0 -19 10 -33 23 -14 12 -45 38 -71 57 -45
35 -119 97 -160 135 -35 32 -103 85 -110 85 -6 0 -156 119 -200 158 -11 10
-38 31 -60 47 -49 36 -81 63 -112 93 -13 12 -27 22 -31 22 -4 0 -23 13 -42 30
-19 16 -40 29 -46 30 -6 0 -21 11 -34 25 -13 14 -27 25 -31 25 -4 0 -20 12
-36 28 -16 15 -42 37 -59 50 -88 67 -150 112 -156 112 -5 0 -8 6 -8 13 0 6
-36 34 -80 62 -44 27 -82 55 -84 62 -3 7 -12 13 -21 13 -8 0 -15 4 -15 10 0 5
-16 20 -35 32 -19 13 -35 29 -35 36 0 6 -9 12 -20 12 -11 0 -27 11 -36 25 -9
13 -25 27 -37 31 -33 10 -87 71 -94 105 -4 21 -22 43 -61 72 -30 23 -91 78
-136 121 -45 43 -105 97 -133 119 -29 22 -53 46 -53 54 0 8 19 23 43 33 23 10
52 30 64 44 13 14 34 28 48 32 14 3 25 10 25 14 0 5 10 12 23 15 24 7 117 100
117 117 0 7 -5 7 -13 -1 -8 -6 -17 -8 -20 -4 -12 11 -8 23 8 23 9 0 12 6 9 15
-10 24 12 17 24 -7 12 -25 11 -26 16 37 0 11 13 26 29 33 15 7 27 17 27 23 0
5 7 9 15 9 9 0 21 12 27 28 15 35 99 117 166 162 29 19 69 59 89 89 36 52 36
54 18 68 -11 8 -18 22 -17 31 4 19 51 72 64 72 5 0 23 16 40 36 18 20 42 40
55 45 18 7 23 16 23 43 0 18 6 39 14 45 28 24 136 227 136 257 0 17 50 116 64
126 17 12 24 110 10 144 -14 32 -9 104 7 104 5 0 9 5 9 10 0 6 7 27 16 48 10
20 16 45 15 55 -1 10 5 29 13 42 22 34 20 38 -9 19 l-25 -16 0 40 c0 23 5 44
10 47 6 4 8 15 5 25 -3 10 -1 21 5 25 9 6 34 45 28 45 -2 -1 -14 -7 -28 -14z
m-40 -176 c0 -5 -5 -10 -11 -10 -5 0 -7 5 -4 10 3 6 8 10 11 10 2 0 4 -4 4
-10z m-295 -60 c-3 -5 -13 -10 -21 -10 -8 0 -14 5 -14 10 0 6 9 10 21 10 11 0
17 -4 14 -10z m-1985 -733 c0 -5 -4 -5 -10 -2 -5 3 -10 14 -10 23 0 15 2 15
10 2 5 -8 10 -19 10 -23z m1080 -1 c0 -3 -4 -8 -10 -11 -5 -3 -10 -1 -10 4 0
6 5 11 10 11 6 0 10 -2 10 -4z m555 -156 c3 -5 1 -10 -4 -10 -6 0 -11 5 -11
10 0 6 2 10 4 10 3 0 8 -4 11 -10z m-938 -52 c-3 -8 -6 -5 -6 6 -1 11 2 17 5
13 3 -3 4 -12 1 -19z m1043 -9 c0 -5 -4 -9 -10 -9 -5 0 -10 7 -10 16 0 8 5 12
10 9 6 -3 10 -10 10 -16z m5 -39 c-3 -5 -10 -10 -16 -10 -5 0 -9 5 -9 10 0 6
7 10 16 10 8 0 12 -4 9 -10z m-278 -392 c-3 -8 -6 -5 -6 6 -1 11 2 17 5 13 3
-3 4 -12 1 -19z m-32 -98 c3 -5 1 -10 -4 -10 -6 0 -11 5 -11 10 0 6 2 10 4 10
3 0 8 -4 11 -10z m-70 -60 c3 -5 1 -10 -4 -10 -6 0 -11 5 -11 10 0 6 2 10 4
10 3 0 8 -4 11 -10z m-65 -20 c0 -5 -4 -10 -10 -10 -5 0 -10 5 -10 10 0 6 5
10 10 10 6 0 10 -4 10 -10z m-70 -51 c0 -6 -4 -7 -10 -4 -5 3 -10 11 -10 16 0
6 5 7 10 4 6 -3 10 -11 10 -16z m-517 -514 c32 -30 57 -58 57 -62 0 -5 14 -19
32 -33 17 -14 55 -49 84 -77 29 -29 57 -53 63 -53 5 0 12 -9 16 -20 3 -10 28
-35 55 -55 36 -26 53 -47 60 -73 11 -40 69 -92 102 -92 11 0 23 -11 28 -25 5
-14 16 -25 25 -25 19 0 19 -9 -2 -32 -14 -16 -14 -18 -1 -18 9 0 28 -15 44
-34 16 -18 47 -54 68 -80 22 -25 48 -46 58 -46 10 0 19 -8 20 -17 0 -10 2 -23
2 -30 2 -25 51 -64 73 -60 19 4 22 1 17 -19 -4 -17 3 -31 29 -57 19 -19 44
-40 56 -46 11 -7 28 -27 36 -46 14 -36 39 -50 29 -17 -2 9 1 7 7 -5 7 -13 16
-23 21 -23 4 0 8 -11 8 -24 0 -30 34 -56 72 -56 26 0 27 -2 16 -24 -9 -22 -6
-29 31 -68 22 -24 41 -51 41 -61 0 -11 9 -21 19 -24 11 -3 22 -15 25 -28 5
-18 15 -25 45 -30 30 -5 41 -12 45 -31 4 -13 13 -24 21 -24 13 0 19 -12 16
-32 -1 -10 36 -29 51 -26 7 2 14 -7 16 -19 2 -13 15 -32 30 -43 40 -29 92 -88
92 -102 0 -14 -15 -8 -33 12 -18 22 -51 27 -44 8 2 -7 10 -12 18 -11 8 2 19
-7 24 -20 6 -12 28 -31 50 -42 22 -12 59 -39 81 -60 23 -22 52 -50 65 -61 13
-12 37 -36 53 -53 16 -18 35 -30 42 -27 8 3 14 0 14 -7 0 -7 3 -22 6 -34 5
-19 3 -21 -18 -17 -19 5 -17 0 17 -31 32 -29 44 -35 67 -30 16 4 28 2 28 -3 0
-5 11 -13 25 -16 14 -4 25 -14 25 -22 0 -14 -12 -15 -91 -11 -76 5 -98 2 -136
-14 -25 -11 -48 -17 -51 -14 -3 3 1 5 8 5 11 0 11 3 3 11 -8 8 -92 14 -255 17
-225 5 -290 5 -468 2 -36 -1 -362 -1 -725 0 -525 0 -910 -3 -910 -10 0 -5
-773 -16 -840 -11 -22 2 -92 0 -155 -3 -63 -4 -250 -9 -415 -12 -165 -3 -318
-9 -340 -15 -24 -6 -62 -7 -95 -2 -30 5 -80 5 -110 1 -30 -4 -113 -10 -185
-13 -132 -6 -260 -13 -260 -15 0 -3 -164 -10 -344 -15 -112 -3 -208 -8 -212
-11 -5 -3 -91 -7 -191 -10 -101 -4 -191 -10 -200 -15 -9 -5 -51 -9 -93 -9
l-76 0 18 25 c10 13 24 25 31 25 14 0 72 42 108 78 13 12 30 22 39 22 8 0 15
4 15 10 0 5 32 30 71 56 39 25 78 54 87 65 9 10 21 19 28 19 13 0 119 68 154
100 14 12 53 36 88 53 35 17 73 41 85 53 13 12 35 26 50 29 14 4 31 13 38 21
6 8 18 14 25 14 8 0 14 5 14 10 0 6 7 10 16 10 9 0 26 9 38 21 28 27 124 99
132 99 17 0 114 52 114 60 0 6 9 10 19 10 10 0 43 18 72 40 30 22 61 40 71 40
10 0 18 5 18 10 0 6 7 10 15 10 8 0 15 4 15 9 0 4 20 19 45 32 25 13 45 27 45
30 0 3 18 12 40 19 22 7 40 16 40 19 0 4 14 15 31 25 18 10 40 27 51 38 22 22
42 14 35 -13 -3 -11 -1 -19 3 -19 14 0 80 47 106 75 19 21 32 25 79 25 48 0
66 6 123 41 37 22 79 43 94 46 15 3 33 12 39 19 6 8 18 14 26 14 18 0 97 45
143 82 19 15 38 28 42 28 5 0 23 15 41 34 29 31 115 86 134 86 4 0 14 -14 22
-32 13 -29 13 -33 -5 -42 -10 -6 -37 -29 -59 -51 -34 -33 -37 -40 -21 -43 20
-4 155 61 186 90 11 10 23 18 28 18 5 0 21 11 36 25 15 14 31 25 35 25 5 0 14
7 21 15 7 9 20 13 30 10 9 -3 33 6 54 20 20 13 47 27 60 31 26 6 79 66 90 100
4 12 23 36 44 53 123 104 152 120 152 82 0 -12 -15 -28 -37 -42 -45 -27 -138
-117 -130 -126 4 -3 25 14 49 37 37 39 47 44 91 46 32 1 60 10 79 24 16 12 82
49 146 82 64 33 142 77 172 98 30 21 70 44 88 51 17 8 32 17 32 20 0 4 30 22
68 40 37 19 69 36 72 39 15 17 109 80 118 80 6 0 28 11 48 25 20 14 44 25 54
25 9 0 27 11 40 25 13 14 30 25 37 25 8 0 21 7 29 15 26 26 49 17 107 -40z
m-1413 -587 c0 -9 3 -9 12 0 7 7 23 12 38 12 25 0 25 -1 -7 -21 -18 -12 -33
-25 -33 -30 0 -5 -29 -22 -64 -38 -35 -16 -72 -37 -83 -47 -10 -11 -26 -20
-36 -20 -14 -1 -15 2 -5 19 13 26 49 56 65 57 7 0 20 11 29 25 11 17 25 25 45
25 21 0 27 4 23 15 -4 8 -1 15 5 15 6 0 11 -5 11 -12z m-110 -8 c0 -5 -4 -10
-10 -10 -5 0 -10 5 -10 10 0 6 5 10 10 10 6 0 10 -4 10 -10z m201 -19 c-12
-21 -40 -46 -46 -39 -7 7 39 67 47 62 5 -3 4 -13 -1 -23z m-346 -149 c-8 -8
-25 10 -19 20 4 6 9 5 15 -3 4 -7 6 -15 4 -17z m2495 -92 c0 -5 -4 -10 -10
-10 -5 0 -10 5 -10 10 0 6 5 10 10 10 6 0 10 -4 10 -10z m101 -72 c8 -15 8
-18 0 -14 -6 4 -16 16 -22 28 -8 15 -8 18 0 14 6 -4 16 -16 22 -28z m164 -78
c3 -5 1 -10 -4 -10 -6 0 -11 5 -11 10 0 6 2 10 4 10 3 0 8 -4 11 -10z m-69
-87 c-7 -7 -26 7 -26 19 0 6 6 6 15 -2 9 -7 13 -15 11 -17z m124 -113 c0 -5
-4 -10 -10 -10 -5 0 -10 5 -10 10 0 6 5 10 10 10 6 0 10 -4 10 -10z m115 -1
c11 -17 -1 -21 -15 -4 -8 9 -8 15 -2 15 6 0 14 -5 17 -11z m115 -35 c0 -9 -7
-14 -17 -12 -25 5 -28 28 -4 28 12 0 21 -6 21 -16z m230 -24 c0 -5 -2 -10 -4
-10 -3 0 -8 5 -11 10 -3 6 -1 10 4 10 6 0 11 -4 11 -10z m-427 -14 c4 -10 1
-13 -9 -9 -15 6 -19 23 -5 23 5 0 11 -7 14 -14z m67 -42 c0 -18 -8 -18 -28 2
-27 28 -24 46 4 27 13 -8 24 -22 24 -29z m215 -24 c3 -5 1 -10 -4 -10 -6 0
-11 5 -11 10 0 6 2 10 4 10 3 0 8 -4 11 -10z m-75 -4 c0 -3 -4 -8 -10 -11 -5
-3 -10 -1 -10 4 0 6 5 11 10 11 6 0 10 -2 10 -4z m30 -22 c0 -8 -4 -12 -10 -9
-5 3 -10 13 -10 21 0 8 5 12 10 9 6 -3 10 -13 10 -21z m-25 -56 c-5 -20 -11
-24 -31 -20 -23 4 -35 32 -14 32 6 0 10 -4 10 -10 0 -5 7 -7 15 -4 8 4 15 13
15 22 0 8 2 13 5 10 4 -3 3 -17 0 -30z m75 12 c0 -5 -4 -10 -10 -10 -5 0 -10
5 -10 10 0 6 5 10 10 10 6 0 10 -4 10 -10z m-22 -38 c-6 -7 -11 -22 -12 -35
-1 -28 -36 -37 -36 -8 0 11 4 22 10 26 5 3 7 11 4 18 -2 7 5 12 20 12 18 0 22
-3 14 -13z m62 -21 c0 -5 3 -16 6 -25 5 -12 0 -16 -22 -16 -19 0 -25 3 -16 8
7 5 10 16 6 25 -4 12 -1 17 10 17 9 0 16 -4 16 -9z m7 -65 c-3 -7 0 -19 6 -25
6 -6 8 -14 4 -18 -8 -8 -36 26 -37 45 0 6 7 12 16 12 10 0 14 -6 11 -14z m153
4 c0 -5 -4 -10 -10 -10 -5 0 -10 5 -10 10 0 6 5 10 10 10 6 0 10 -4 10 -10z
m-115 -10 c3 -5 1 -10 -4 -10 -6 0 -11 5 -11 10 0 6 2 10 4 10 3 0 8 -4 11
-10z m69 -5 c-4 -8 -10 -15 -15 -15 -5 0 -9 -10 -9 -22 0 -18 -2 -20 -9 -9
-11 18 7 61 25 61 8 0 11 -6 8 -15z m-57 -62 c2 -6 -7 -10 -22 -9 -27 1 -33
11 -12 19 16 7 30 3 34 -10z m53 -52 c0 -5 -6 -14 -14 -21 -12 -9 -15 -8 -13
9 1 20 27 31 27 12z m80 -86 c0 -2 -7 -5 -14 -8 -10 -4 -13 -1 -9 9 3 8 -1 14
-10 14 -15 0 -50 44 -41 53 4 4 74 -60 74 -68z m90 -35 c0 -11 -4 -20 -10 -20
-5 0 -10 2 -10 4 0 2 -3 11 -6 20 -4 11 -1 16 10 16 9 0 16 -8 16 -20z m-42
-17 c-10 -2 -26 -2 -35 0 -10 3 -2 5 17 5 19 0 27 -2 18 -5z m1722 -43 c0 -5
-4 -10 -10 -10 -5 0 -10 5 -10 10 0 6 5 10 10 10 6 0 10 -4 10 -10z m-35 -20
c-3 -5 -11 -10 -16 -10 -6 0 -7 5 -4 10 3 6 11 10 16 10 6 0 7 -4 4 -10z
m-2200 -251 c19 -8 74 -13 147 -13 88 -1 118 -4 118 -14 0 -9 -39 -11 -171 -9
-94 2 -172 0 -175 -4 -3 -5 -58 -6 -111 0 -18 2 5 49 26 53 37 7 138 -1 166
-13z m-1515 -9 c0 -5 -8 -11 -17 -13 -10 -3 2 -5 28 -6 25 0 49 3 55 9 5 5 30
11 56 14 37 3 45 1 41 -10 -7 -18 14 -18 24 0 6 11 32 13 126 8 64 -2 117 -8
117 -12 0 -22 -40 -31 -168 -37 -140 -6 -189 -23 -67 -23 81 0 122 -14 105
-35 -14 -17 -50 -20 -50 -5 0 6 -5 10 -11 10 -5 0 -7 -4 -4 -10 3 -5 -2 -11
-12 -11 -32 -2 -147 3 -168 7 -11 3 -96 6 -188 8 -114 2 -172 7 -180 16 -9 9
-9 11 3 9 24 -4 70 12 64 22 -3 5 -14 9 -25 9 -10 0 -19 5 -19 10 0 6 4 10 10
10 5 0 7 8 4 18 -4 10 -3 13 3 6 13 -17 41 -24 46 -11 2 8 32 13 83 14 43 0
90 6 104 11 26 10 40 7 40 -8z m919 -5 c11 -12 -13 -15 -120 -15 -63 0 -160 0
-216 0 -61 -1 -103 3 -103 9 0 5 7 11 17 13 25 5 416 -2 422 -7z m349 0 c31
-7 28 -29 -3 -23 -14 3 -27 2 -30 -2 -7 -12 -228 -2 -260 11 l-30 13 45 5 c50
7 242 3 278 -4z m-1718 -6 c8 -1 23 1 33 6 9 4 29 4 45 -1 15 -4 36 -6 47 -5
15 1 17 0 6 -7 -7 -6 -10 -15 -7 -21 5 -8 -16 -11 -70 -11 -69 0 -75 2 -63 16
11 14 9 15 -27 9 -21 -4 -44 -11 -50 -16 -12 -10 -398 -12 -457 -2 -87 14 -8
22 216 24 130 0 239 4 242 9 2 4 19 6 37 4 18 -2 40 -5 48 -5z m2345 -9 c-3
-5 -12 -7 -20 -3 -21 7 -19 13 6 13 11 0 18 -4 14 -10z m-2238 -67 c4 -10 -25
-13 -119 -13 -69 0 -128 -3 -131 -6 -12 -12 -317 -12 -317 0 0 7 28 11 73 12
101 1 390 14 393 17 10 9 98 0 101 -10z m4440 -9 c-3 -3 -12 -4 -19 -1 -8 3
-5 6 6 6 11 1 17 -2 13 -5z m193 -35 c0 -5 -4 -9 -10 -9 -5 0 -10 7 -10 16 0
8 5 12 10 9 6 -3 10 -10 10 -16z m-3910 -299 c0 -5 -4 -10 -10 -10 -5 0 -10 5
-10 10 0 6 5 10 10 10 6 0 10 -4 10 -10z m1114 -54 c-5 -14 -9 -15 -15 -5 -5
8 -3 17 4 21 15 9 19 4 11 -16z m101 4 c3 -5 2 -10 -4 -10 -5 0 -13 5 -16 10
-3 6 -2 10 4 10 5 0 13 -4 16 -10z m289 -5 c3 -8 1 -15 -4 -15 -6 0 -10 7 -10
15 0 8 2 15 4 15 2 0 6 -7 10 -15z m-1440 -10 c-7 -17 -20 -20 -28 -6 -4 5 0
12 6 14 23 9 28 7 22 -8z m466 0 c10 -12 10 -15 -4 -15 -9 0 -16 7 -16 15 0 8
2 15 4 15 2 0 9 -7 16 -15z m71 -4 c-8 -5 -11 -16 -8 -25 8 -21 3 -20 -19 1
-15 16 -15 17 2 24 27 11 42 10 25 0z m429 0 c0 -6 -4 -13 -10 -16 -5 -3 -10
1 -10 9 0 9 5 16 10 16 6 0 10 -4 10 -9z m-630 -11 c0 -5 -2 -10 -4 -10 -3 0
-8 5 -11 10 -3 6 -1 10 4 10 6 0 11 -4 11 -10z m955 0 c3 -5 3 -15 -1 -21 -6
-11 -23 6 -24 24 0 10 18 9 25 -3z m-1055 -10 c0 -5 -4 -10 -10 -10 -5 0 -10
5 -10 10 0 6 5 10 10 10 6 0 10 -4 10 -10z m775 0 c-3 -5 -10 -10 -16 -10 -5
0 -9 5 -9 10 0 6 7 10 16 10 8 0 12 -4 9 -10z m65 -6 c0 -8 -4 -12 -10 -9 -5
3 -10 10 -10 16 0 5 5 9 10 9 6 0 10 -7 10 -16z m-770 -30 c0 -19 5 -24 26
-24 22 0 25 2 14 15 -10 12 -10 15 0 15 7 0 19 -8 27 -17 11 -14 15 -15 20 -4
5 11 7 11 14 0 7 -11 11 -10 21 4 11 15 19 16 40 8 17 -6 29 -6 35 0 7 7 15 6
24 -3 16 -15 59 -22 59 -9 0 5 -7 12 -16 15 -9 4 -14 9 -10 13 8 9 47 -28 40
-38 -3 -5 6 -9 20 -9 13 0 26 6 29 13 3 9 7 9 20 -2 12 -9 17 -10 17 -2 0 7 5
9 11 5 6 -3 15 0 20 7 6 11 11 11 20 2 6 -6 17 -9 24 -6 8 2 23 -1 35 -7 16
-9 25 -9 36 0 20 18 44 4 44 -25 0 -14 4 -25 10 -25 5 0 7 7 4 15 -4 8 -1 15
6 15 7 0 19 8 26 18 12 16 14 16 41 1 15 -9 34 -14 41 -12 6 3 12 -1 12 -7 0
-7 -15 -10 -42 -9 -23 2 -43 -1 -45 -7 -2 -6 18 -11 49 -11 58 -2 72 3 61 20
-9 15 -13 73 -4 61 11 -16 60 -44 76 -44 8 0 15 -4 15 -10 0 -16 27 -11 34 6
5 12 14 15 36 10 22 -4 30 -2 30 9 0 19 4 19 48 -2 25 -12 37 -14 39 -6 3 9
12 9 29 2 33 -12 34 -12 34 5 0 16 44 10 76 -11 13 -8 32 -11 48 -7 16 4 26 2
26 -5 0 -14 47 -15 55 -1 3 6 0 10 -7 10 -7 0 -4 6 6 12 15 8 21 8 24 0 2 -7
12 -12 23 -12 10 0 19 -4 19 -10 0 -5 -5 -10 -11 -10 -8 0 -7 -5 1 -16 12 -13
15 -13 29 0 11 12 12 19 4 27 -18 18 3 52 28 44 11 -4 19 -2 19 4 0 6 9 11 20
11 11 0 20 -7 20 -15 0 -9 -9 -15 -24 -15 -25 0 -51 -22 -39 -33 10 -11 35 -8
28 3 -3 6 3 10 14 10 11 0 23 -4 26 -10 9 -15 25 -12 25 5 0 8 5 15 10 15 6 0
10 -4 10 -9 0 -13 49 -20 55 -7 2 6 2 1 -1 -11 -6 -25 5 -30 24 -11 10 10 15
10 21 0 6 -10 10 -9 14 7 3 14 10 18 26 14 12 -3 21 -11 21 -18 0 -17 23 -25
49 -18 12 3 21 1 21 -5 0 -6 3 -17 6 -25 4 -11 -4 -17 -27 -22 -19 -4 -27 -10
-20 -14 9 -6 8 -11 -3 -20 -8 -7 -12 -19 -9 -28 5 -12 1 -14 -15 -8 -14 4 -22
2 -22 -5 0 -6 -8 -14 -17 -17 -10 -4 -36 -25 -58 -48 -22 -23 -60 -55 -85 -72
-25 -17 -59 -46 -75 -64 -33 -37 -109 -99 -121 -99 -4 0 -30 -24 -58 -54 -29
-30 -67 -59 -89 -67 -20 -7 -45 -24 -55 -37 -20 -29 -81 -92 -88 -92 -2 0 -26
-20 -52 -45 -26 -25 -52 -45 -59 -45 -7 0 -13 -7 -13 -15 0 -8 -4 -15 -9 -15
-10 0 -46 -29 -87 -70 -11 -11 -30 -22 -42 -25 -33 -6 -41 -13 -57 -51 -9 -21
-19 -32 -28 -29 -7 3 -27 -10 -45 -29 -17 -19 -39 -37 -49 -40 -10 -3 -27 -20
-37 -36 -9 -17 -21 -28 -26 -25 -5 3 -15 -3 -22 -13 -7 -9 -26 -26 -43 -36
-16 -11 -51 -41 -77 -67 -26 -26 -62 -57 -80 -70 -18 -12 -70 -60 -115 -105
-45 -46 -86 -84 -91 -84 -5 0 -12 -9 -15 -20 -3 -11 -12 -20 -19 -20 -8 0 -20
-11 -26 -25 -6 -13 -23 -27 -37 -31 -15 -4 -30 -17 -35 -30 -5 -13 -16 -24
-25 -24 -8 0 -15 -4 -15 -10 0 -5 -6 -10 -13 -10 -7 0 -21 -13 -30 -30 -10
-16 -25 -30 -33 -30 -15 0 -64 -46 -64 -60 0 -4 -9 -11 -20 -16 -17 -8 -146
-125 -298 -271 -30 -29 -58 -53 -63 -53 -5 0 -14 -10 -20 -22 -13 -25 -40 -52
-85 -83 -15 -11 -37 -31 -48 -44 -50 -58 -134 -141 -144 -141 -5 0 -49 -37
-97 -82 -48 -46 -96 -89 -106 -96 -11 -7 -19 -20 -19 -28 0 -8 -6 -14 -13 -14
-7 0 -28 -16 -47 -35 -19 -19 -38 -35 -43 -35 -5 0 -26 14 -47 30 -21 17 -42
30 -47 30 -6 0 -18 9 -28 20 -10 11 -24 20 -32 20 -7 0 -16 7 -19 15 -4 8 -10
15 -15 15 -15 0 -130 82 -136 96 -3 8 -10 14 -17 14 -6 0 -29 18 -51 40 -22
21 -65 52 -95 67 -30 15 -64 36 -74 46 -11 9 -23 17 -27 17 -4 0 -25 15 -48
33 -22 17 -63 50 -91 71 -27 22 -50 45 -50 53 0 7 -10 13 -21 13 -12 0 -38 17
-58 38 -41 45 -149 128 -202 157 -76 42 -139 91 -139 108 0 10 -8 21 -17 24
-10 4 -20 9 -23 13 -3 3 -30 23 -60 45 -30 22 -56 43 -58 47 -2 5 -10 8 -18 8
-8 0 -17 7 -20 15 -4 8 -12 15 -19 15 -7 0 -15 3 -17 8 -4 9 -135 112 -143
112 -3 0 -13 6 -21 13 -8 6 -20 17 -27 22 -48 41 -178 135 -186 135 -5 0 -11
4 -13 8 -1 4 -43 38 -93 75 -49 37 -95 71 -101 76 -65 53 -325 241 -333 241
-5 0 -11 4 -13 9 -1 4 -28 25 -58 44 -30 20 -80 53 -111 74 -31 21 -63 43 -72
48 -29 19 -192 130 -202 138 -5 5 -29 21 -51 35 -23 15 -81 54 -129 87 -48 33
-94 65 -103 70 -10 6 -51 33 -92 61 -41 28 -97 66 -125 85 -27 18 -51 37 -53
41 -2 4 -7 8 -12 8 -8 0 -131 80 -140 91 -3 3 -9 8 -15 10 -5 2 -33 20 -62 39
-53 36 -73 64 -73 102 0 12 -10 32 -22 45 -12 13 -18 26 -15 30 4 3 42 -1 85
-11 137 -32 130 -31 107 -12 -19 16 -19 16 10 9 35 -9 73 -9 170 0 232 21 491
29 1055 31 267 1 493 -2 502 -6 18 -8 1805 -15 1813 -7 2 3 33 2 68 -1 61 -5
605 -5 657 0 14 1 55 -1 93 -5 48 -6 67 -5 67 4 0 6 -6 11 -12 11 -9 0 -9 3 1
9 19 12 41 3 34 -15 -4 -11 5 -13 48 -10 30 2 62 5 72 5 10 1 15 6 12 11 -10
16 7 11 19 -6 9 -11 30 -16 74 -17 34 -1 62 0 62 2 0 2 -7 9 -17 16 -19 14 -9
37 12 28 8 -3 15 -16 15 -29z m634 27 c4 -5 -3 -7 -14 -4 -23 6 -26 13 -6 13
8 0 17 -4 20 -9z m270 -6 c11 -8 15 -15 10 -15 -6 0 -19 7 -30 15 -10 8 -14
14 -9 14 6 0 19 -6 29 -14z m186 -5 c0 -5 -7 -7 -15 -4 -8 4 -12 10 -9 15 6
11 24 2 24 -11z m45 10 c3 -5 2 -10 -4 -10 -5 0 -13 5 -16 10 -3 6 -2 10 4 10
5 0 13 -4 16 -10z m123 -5 c2 -2 2 -11 0 -20 -2 -14 -7 -12 -28 10 l-25 27 25
-7 c14 -4 27 -9 28 -10z m-58 -5 c0 -5 -5 -10 -11 -10 -5 0 -7 5 -4 10 3 6 8
10 11 10 2 0 4 -4 4 -10z m-493 -36 c-9 -9 -28 6 -21 18 4 6 10 6 17 -1 6 -6
8 -13 4 -17z m471 6 c7 -11 9 -20 4 -20 -10 0 -32 22 -32 32 0 15 15 8 28 -12z
m1982 -150 c0 -5 -7 -10 -15 -10 -8 0 -15 5 -15 10 0 6 7 10 15 10 8 0 15 -4
15 -10z m-1113 -37 c10 21 20 27 42 27 16 0 33 -4 36 -10 3 -5 25 -7 49 -4 35
5 53 2 85 -17 23 -12 41 -26 41 -31 0 -12 19 -10 34 4 7 7 10 23 8 36 -4 18
-1 23 9 20 26 -9 23 -57 -6 -84 -15 -14 -24 -28 -21 -31 3 -4 -1 -15 -11 -25
-21 -24 -10 -34 22 -20 14 7 30 12 36 12 10 0 4 -38 -11 -75 -4 -11 -16 -58
-26 -105 -10 -47 -20 -87 -24 -90 -3 -3 -14 -41 -24 -85 -10 -44 -22 -89 -26
-100 -5 -11 -17 -56 -26 -100 -10 -44 -21 -82 -24 -85 -3 -3 -5 -9 -5 -15 0
-5 -6 -32 -13 -60 -35 -131 -66 -248 -86 -325 -13 -47 -36 -132 -51 -190 -15
-58 -38 -141 -51 -185 -13 -44 -24 -86 -24 -93 0 -7 -4 -20 -9 -30 -9 -17 -29
-94 -37 -142 -2 -14 -8 -34 -13 -45 -10 -23 -27 -92 -36 -147 -3 -21 -11 -38
-17 -38 -6 0 -9 -2 -6 -5 5 -5 -21 -116 -57 -250 -9 -33 -28 -103 -42 -155
-13 -52 -33 -124 -43 -160 -11 -36 -22 -78 -26 -95 -3 -16 -16 -66 -29 -110
-26 -90 -40 -145 -60 -225 -36 -148 -87 -335 -95 -351 -6 -10 -10 -27 -10 -38
0 -11 -11 -55 -25 -97 -14 -42 -25 -84 -25 -93 0 -9 -11 -52 -24 -96 -13 -44
-29 -100 -35 -125 -6 -25 -23 -88 -37 -140 -14 -52 -32 -120 -40 -150 -7 -30
-29 -113 -49 -185 -20 -71 -40 -148 -46 -170 -5 -22 -15 -57 -20 -78 l-10 -37
-47 42 c-98 90 -119 109 -187 164 -38 31 -97 70 -130 86 -41 21 -90 61 -157
130 -54 54 -98 102 -98 106 0 4 -21 30 -46 57 -26 28 -69 77 -97 110 -27 33
-57 65 -67 70 -17 10 -124 101 -167 143 -13 12 -26 22 -27 22 -6 0 -77 61
-111 95 -16 17 -43 39 -60 49 -16 11 -34 25 -38 33 -4 7 -14 13 -22 13 -7 0
-27 12 -43 28 -16 15 -60 52 -97 82 -37 30 -77 65 -90 78 -12 12 -26 22 -31
22 -5 0 -22 13 -39 28 -16 15 -43 36 -60 46 -16 11 -34 25 -38 33 -4 7 -14 13
-22 13 -7 0 -17 9 -20 20 -3 11 -12 20 -19 20 -7 0 -26 12 -42 26 -16 14 -60
48 -99 75 -86 60 -111 80 -191 147 -35 28 -68 52 -73 52 -6 0 -14 6 -18 13 -4
7 -34 30 -66 52 -32 22 -60 42 -62 46 -3 3 56 68 130 144 105 108 137 136 147
127 10 -8 19 -4 37 19 13 16 29 29 37 29 8 0 14 7 14 15 0 8 12 26 28 40 15
14 34 32 43 40 23 22 46 20 28 -2 -8 -9 8 0 34 20 27 20 53 37 58 37 5 0 9 13
9 28 0 22 11 37 43 63 23 19 66 55 94 81 32 29 58 45 68 42 10 -4 22 6 36 31
15 24 37 43 65 56 30 12 45 26 50 43 3 14 11 23 18 20 7 -3 47 26 90 63 43 37
86 73 95 78 42 26 133 124 125 136 -5 9 -2 11 9 6 17 -6 40 10 119 85 24 24
66 61 93 83 27 22 74 63 105 90 92 81 143 125 146 125 1 0 15 12 31 28 16 15
57 52 92 82 35 30 69 60 75 66 6 5 36 32 66 58 112 97 132 119 118 128 -9 6
-7 8 7 4 13 -4 29 2 45 17 14 13 33 26 43 30 9 3 20 20 23 37 5 23 12 30 31
30 20 0 22 3 13 19 -13 26 -13 31 5 31 9 0 12 6 9 15 -8 20 5 19 28 -2 17 -15
18 -15 12 16 -6 27 -4 30 11 24 12 -4 16 -3 12 4 -9 14 2 43 15 43 5 0 16 -7
24 -15 13 -12 11 -17 -16 -36 -16 -13 -30 -30 -30 -38 0 -9 16 2 42 27 22 23
45 42 50 42 4 0 8 5 8 10 0 6 -11 8 -25 4 -15 -4 -25 -2 -25 5 0 6 7 11 15 11
9 0 15 9 15 25 0 16 6 25 16 25 13 0 14 -3 5 -14 -17 -20 -1 -25 29 -10 20 11
21 14 6 14 -15 0 -16 3 -6 15 6 8 9 18 7 23 -3 4 -2 14 3 22 7 11 11 8 19 -13
6 -15 13 -27 17 -27 3 0 4 7 0 15 -3 9 4 25 17 38 12 12 21 27 19 33 -6 27 79
66 93 43 4 -5 -8 -22 -26 -39 -18 -16 -30 -32 -27 -35 6 -7 56 35 147 123 30
28 60 52 67 52 7 0 14 3 16 8 2 4 37 36 78 72 108 93 119 102 147 129 14 13
33 40 41 60 l16 36 5 -35 6 -34 12 27z m-61 11 c-3 -9 -6 -20 -6 -25 0 -6 -4
-7 -10 -4 -16 10 -12 45 6 45 11 0 14 -5 10 -16z m1014 -14 c0 -5 -12 -10 -26
-10 -14 0 -23 4 -19 10 3 6 15 10 26 10 10 0 19 -4 19 -10z m66 -1 c3 -6 0
-15 -7 -20 -22 -14 -29 -11 -29 11 0 21 24 27 36 9z m-1142 -19 c23 18 32 5
18 -25 -13 -29 -69 -38 -58 -9 3 9 6 23 6 32 0 14 2 15 9 3 8 -12 12 -13 25
-1z m1306 0 c0 -5 -2 -10 -4 -10 -3 0 -8 5 -11 10 -3 6 -1 10 4 10 6 0 11 -4
11 -10z m-1490 -16 c0 -8 -4 -12 -10 -9 -5 3 -10 10 -10 16 0 5 5 9 10 9 6 0
10 -7 10 -16z m1265 6 c-3 -5 -10 -10 -16 -10 -5 0 -9 5 -9 10 0 6 7 10 16 10
8 0 12 -4 9 -10z m-1180 -30 c-3 -5 -11 -10 -16 -10 -6 0 -7 5 -4 10 3 6 11
10 16 10 6 0 7 -4 4 -10z m1146 -23 c-1 -12 -15 -9 -19 4 -3 6 1 10 8 8 6 -3
11 -8 11 -12z m126 7 c-3 -3 -12 -4 -19 -1 -8 3 -5 6 6 6 11 1 17 -2 13 -5z
m-1312 -14 c3 -5 1 -10 -4 -10 -6 0 -11 5 -11 10 0 6 2 10 4 10 3 0 8 -4 11
-10z m1235 -25 c5 3 7 -7 6 -22 -2 -16 -7 -26 -12 -24 -5 2 -8 12 -6 23 2 10
-4 21 -12 24 -12 5 -13 9 -3 19 10 11 13 9 15 -6 2 -11 7 -17 12 -14z m60 16
c0 -6 -4 -12 -8 -15 -5 -3 -9 1 -9 9 0 8 4 15 9 15 4 0 8 -4 8 -9z m-1212 -15
c-7 -8 -16 -12 -19 -10 -4 2 -9 -5 -12 -16 -3 -13 -17 -22 -36 -26 -17 -4 -28
-11 -25 -16 8 -13 -33 -56 -71 -75 -16 -8 -41 -26 -55 -39 -70 -65 -66 -63
-79 -43 -14 24 -14 29 3 29 8 0 28 14 46 30 18 17 41 30 51 30 13 0 19 7 19
21 0 14 5 19 14 16 8 -3 18 5 25 19 6 13 22 29 36 36 14 6 25 15 25 20 0 12
-34 10 -48 -4 -9 -9 -12 -8 -12 5 0 13 9 17 44 17 25 0 48 5 51 10 3 6 17 10
31 10 21 0 23 -2 12 -14z m1249 -12 c-9 -9 -28 6 -21 18 4 6 10 6 17 -1 6 -6
8 -13 4 -17z m36 9 c-1 -5 10 -10 25 -11 14 -1 30 -6 35 -11 5 -5 16 -7 23 -4
21 8 17 -25 -6 -44 -29 -25 -25 -36 10 -29 17 3 30 2 30 -3 0 -10 -60 -21 -73
-14 -4 2 -3 12 3 23 7 13 6 21 -4 29 -7 6 -16 8 -19 4 -4 -3 -7 -1 -7 6 0 7
-10 11 -22 9 -16 -2 -24 3 -26 16 -2 10 0 16 6 12 6 -4 8 2 5 15 -5 16 -2 20
8 17 8 -3 13 -10 12 -15z m-1443 -17 c0 -36 -17 -41 -18 -6 0 17 4 30 9 30 5
0 9 -11 9 -24z m2045 4 c3 -5 1 -10 -4 -10 -6 0 -11 5 -11 10 0 6 2 10 4 10 3
0 8 -4 11 -10z m-245 -21 c0 -6 -4 -7 -10 -4 -5 3 -10 11 -10 16 0 6 5 7 10 4
6 -3 10 -11 10 -16z m-425 -3 c12 -12 11 -15 -5 -19 -22 -6 -35 7 -25 23 8 13
14 13 30 -4z m250 4 c3 -5 1 -10 -4 -10 -6 0 -11 5 -11 10 0 6 2 10 4 10 3 0
8 -4 11 -10z m53 -12 c15 -15 16 -38 2 -38 -5 0 -10 9 -10 19 0 11 -6 22 -12
24 -7 3 -8 6 -2 6 5 1 15 -4 22 -11z m-88 -8 c0 -5 -4 -10 -10 -10 -5 0 -10 5
-10 10 0 6 5 10 10 10 6 0 10 -4 10 -10z m60 -16 c0 -9 -5 -14 -12 -12 -18 6
-21 28 -4 28 9 0 16 -7 16 -16z m-1730 -4 c0 -5 -4 -10 -10 -10 -5 0 -10 5
-10 10 0 6 5 10 10 10 6 0 10 -4 10 -10z m1515 -1 c10 -15 -1 -23 -20 -15 -9
3 -13 10 -10 16 8 13 22 13 30 -1z m170 -29 c16 -18 16 -20 2 -20 -9 0 -21 9
-27 20 -6 11 -7 20 -2 20 5 0 17 -9 27 -20z m136 3 c13 -17 13 -17 -6 -3 -11
8 -22 16 -24 17 -2 2 0 3 6 3 6 0 17 -8 24 -17z m-375 -8 c3 -8 21 -20 40 -27
19 -6 34 -16 34 -21 0 -5 -8 -6 -17 -2 -10 5 -26 8 -35 9 -10 0 -18 6 -18 13
0 7 -4 13 -9 13 -5 0 -11 7 -15 15 -3 8 -1 15 5 15 5 0 12 -7 15 -15z m734 5
c0 -5 -2 -10 -4 -10 -3 0 -8 5 -11 10 -3 6 -1 10 4 10 6 0 11 -4 11 -10z
m-2340 -9 c0 -5 -7 -11 -15 -15 -15 -5 -20 5 -8 17 9 10 23 9 23 -2z m1944 -7
c4 -10 1 -14 -6 -12 -15 5 -23 28 -10 28 5 0 13 -7 16 -16z m133 -6 c-3 -8 -6
-5 -6 6 -1 11 2 17 5 13 3 -3 4 -12 1 -19z m131 0 c20 -15 22 -19 7 -13 -11 4
-28 10 -37 12 -10 3 -18 9 -18 14 0 15 21 10 48 -13z m345 15 c-7 -2 -19 -2
-25 0 -7 3 -2 5 12 5 14 0 19 -2 13 -5z m-2413 -17 c0 -11 -19 -15 -25 -6 -3
5 1 10 9 10 9 0 16 -2 16 -4z m1670 -6 c0 -5 11 -10 25 -10 14 0 25 -4 25 -8
0 -4 -16 -6 -35 -4 -21 3 -35 10 -35 18 0 8 5 14 10 14 6 0 10 -4 10 -10z
m227 -12 c-3 -8 -6 -5 -6 6 -1 11 2 17 5 13 3 -3 4 -12 1 -19z m-492 -8 c3 -5
1 -10 -4 -10 -6 0 -11 5 -11 10 0 6 2 10 4 10 3 0 8 -4 11 -10z m185 0 c0 -5
-2 -10 -4 -10 -3 0 -8 5 -11 10 -3 6 -1 10 4 10 6 0 11 -4 11 -10z m745 0 c3
-5 2 -10 -4 -10 -5 0 -13 5 -16 10 -3 6 -2 10 4 10 5 0 13 -4 16 -10z m55 -10
c0 -5 -2 -10 -4 -10 -3 0 -8 5 -11 10 -3 6 -1 10 4 10 6 0 11 -4 11 -10z
m-2530 -14 c0 -3 -4 -8 -10 -11 -5 -3 -10 -1 -10 4 0 6 5 11 10 11 6 0 10 -2
10 -4z m1600 -16 c8 -5 12 -11 9 -14 -3 -3 -14 1 -25 9 -21 16 -8 20 16 5z
m71 0 c5 0 9 -7 9 -15 0 -12 -4 -13 -25 -3 -27 12 -35 34 -9 24 9 -3 20 -6 25
-6z m175 -17 c-10 -10 -19 5 -10 18 6 11 8 11 12 0 2 -7 1 -15 -2 -18z m-326
-27 c-12 -12 -15 -8 -25 24 -8 25 -8 25 14 6 14 -13 18 -23 11 -30z m-7676
-68 c98 -94 93 -89 161 -143 28 -21 57 -47 65 -57 8 -9 49 -42 90 -72 41 -31
91 -70 110 -88 20 -18 68 -62 108 -97 40 -35 72 -70 72 -77 0 -8 11 -16 25
-20 14 -3 25 -10 25 -14 0 -4 26 -27 58 -51 51 -40 102 -82 154 -131 10 -10
21 -18 24 -18 3 0 20 -15 38 -32 17 -18 52 -46 76 -62 25 -17 55 -39 66 -50
12 -12 41 -37 65 -56 23 -19 52 -43 63 -52 12 -10 39 -32 61 -49 22 -17 75
-64 117 -105 42 -41 83 -74 90 -74 8 0 21 -8 30 -17 25 -27 46 -43 56 -43 5 0
21 -9 36 -21 14 -11 26 -17 26 -14 0 4 7 2 15 -5 21 -17 19 -30 -5 -30 -31 0
-24 -13 25 -50 25 -19 45 -37 45 -42 0 -4 18 -19 40 -33 22 -14 40 -32 40 -40
0 -9 11 -21 25 -27 14 -6 25 -15 25 -19 0 -5 18 -21 41 -36 33 -22 39 -31 34
-50 -3 -13 -1 -23 5 -23 18 0 90 -62 90 -77 0 -8 -4 -11 -10 -8 -5 3 -7 0 -4
-9 3 -8 19 -19 35 -25 16 -5 29 -17 29 -25 0 -19 47 -56 71 -56 11 0 19 -5 19
-10 0 -6 16 -20 35 -31 37 -22 51 -64 18 -52 -16 6 -17 5 -3 -12 8 -10 39 -36
68 -57 29 -22 82 -68 117 -104 36 -35 72 -64 80 -64 21 0 45 -52 27 -58 -21
-7 -13 -28 16 -43 15 -8 29 -17 32 -20 7 -10 72 -48 93 -55 9 -4 17 -10 17
-15 0 -5 4 -9 10 -9 22 0 99 -66 99 -86 1 -24 40 -61 75 -70 13 -3 33 -14 45
-25 11 -10 27 -19 34 -19 8 0 20 -7 27 -15 10 -12 10 -18 0 -30 -7 -8 -16 -15
-21 -15 -5 0 -29 -19 -54 -42 -24 -24 -58 -54 -74 -68 -17 -14 -31 -30 -31
-37 0 -16 -80 -93 -96 -93 -7 0 -16 -10 -20 -22 -4 -13 -16 -33 -28 -45 -12
-12 -26 -27 -32 -33 -59 -61 -116 -110 -128 -110 -9 0 -25 -19 -37 -42 -26
-52 -48 -78 -65 -78 -14 0 -57 -33 -93 -74 -14 -15 -64 -67 -111 -115 -119
-121 -160 -167 -160 -180 0 -6 -5 -11 -10 -11 -6 0 -16 -11 -22 -25 -6 -14
-17 -25 -23 -25 -7 0 -21 -12 -31 -27 -21 -33 -26 -39 -91 -109 -29 -31 -53
-60 -53 -65 0 -5 -7 -9 -15 -9 -8 0 -26 -18 -41 -41 -14 -22 -38 -48 -55 -57
-16 -10 -29 -20 -29 -24 0 -11 -26 -42 -90 -111 -30 -32 -66 -72 -80 -89 -14
-18 -53 -61 -88 -97 -35 -35 -70 -77 -78 -93 -8 -15 -21 -28 -29 -28 -8 0 -15
-7 -15 -15 0 -7 -6 -18 -13 -22 -7 -4 -21 -19 -30 -32 -15 -22 -69 -84 -154
-178 -17 -19 -60 -70 -94 -114 -35 -43 -66 -79 -71 -79 -4 0 -8 -5 -8 -11 0
-7 -10 -22 -22 -34 -13 -13 -27 -29 -33 -37 -5 -7 -25 -31 -43 -53 -41 -49
-59 -72 -167 -205 -47 -58 -101 -123 -120 -145 -19 -22 -42 -51 -51 -63 -19
-28 -101 -105 -118 -111 -6 -2 -16 -11 -23 -20 -6 -9 -15 -13 -19 -8 -4 4 -2
13 4 19 7 7 12 24 12 39 0 15 7 29 16 33 11 4 14 13 11 27 -3 12 -1 33 5 48 9
23 17 65 35 171 3 19 9 40 13 45 15 19 51 154 50 187 -1 18 4 69 10 113 12 90
15 514 5 674 -3 57 -8 140 -11 185 -3 44 -7 113 -10 151 -3 39 -8 102 -10 140
-2 39 -6 95 -9 125 -2 30 -9 111 -14 180 -6 69 -12 132 -15 140 -7 19 -14 99
-26 290 -5 85 -15 179 -21 208 -6 30 -12 80 -13 111 -2 32 -6 63 -9 68 -4 6
-7 45 -8 88 -1 42 -5 93 -10 113 -5 21 -12 75 -15 122 -4 47 -10 93 -15 102
-5 9 -9 46 -9 82 0 40 -8 86 -19 118 -11 29 -25 105 -32 168 -15 140 -15 141
-22 160 -8 19 -18 114 -22 200 -1 36 -6 92 -11 125 -9 70 -10 80 -12 119 -2
24 -4 27 -17 16 -8 -7 -15 -25 -15 -41 0 -34 -20 -40 -21 -6 -2 37 -6 89 -13
152 -3 33 -9 87 -12 120 -3 33 -9 64 -12 69 -3 6 -7 37 -9 70 -2 34 -7 75 -12
91 -5 17 -13 75 -16 129 -4 55 -11 107 -16 115 -15 25 -47 313 -38 338 6 16 4
25 -7 31 -12 7 -17 29 -20 88 -2 43 -7 95 -10 114 -8 41 -14 45 110 -72z
m7686 42 c0 -5 -4 -10 -10 -10 -5 0 -10 5 -10 10 0 6 5 10 10 10 6 0 10 -4 10
-10z m446 -24 c20 -21 17 -28 -6 -16 -11 6 -20 15 -20 20 0 14 9 12 26 -4z
m-96 -26 c0 -5 -7 -10 -15 -10 -8 0 -15 5 -15 10 0 6 7 10 15 10 8 0 15 -4 15
-10z m-1977 -30 c6 -23 -1 -25 -25 -6 -23 17 -23 26 1 26 10 0 21 -9 24 -20z
m1787 10 c0 -5 -5 -10 -11 -10 -5 0 -7 5 -4 10 3 6 8 10 11 10 2 0 4 -4 4 -10z
m-1860 -25 c-7 -8 -17 -12 -23 -8 -6 4 -3 9 9 14 27 11 28 11 14 -6z m1910 -5
c0 -5 -2 -10 -4 -10 -3 0 -8 5 -11 10 -3 6 -1 10 4 10 6 0 11 -4 11 -10z
m-2115 -40 c3 -5 2 -10 -4 -10 -5 0 -13 5 -16 10 -3 6 -2 10 4 10 5 0 13 -4
16 -10z m2465 -10 c0 -5 -4 -10 -10 -10 -5 0 -10 5 -10 10 0 6 5 10 10 10 6 0
10 -4 10 -10z m-2424 -36 c-3 -9 -6 -21 -7 -27 0 -7 -4 -3 -8 8 -9 22 -5 35
11 35 5 0 7 -7 4 -16z m2169 6 c3 -5 2 -10 -4 -10 -5 0 -13 5 -16 10 -3 6 -2
10 4 10 5 0 13 -4 16 -10z m-61 -32 c-4 -6 -10 -5 -15 3 -14 22 -10 33 6 19 8
-7 12 -17 9 -22z m1551 -16 c-3 -3 -11 0 -18 7 -9 10 -8 11 6 5 10 -3 15 -9
12 -12z m-1205 -2 c0 -5 -4 -10 -10 -10 -5 0 -10 5 -10 10 0 6 5 10 10 10 6 0
10 -4 10 -10z m62 -34 c-7 -13 -21 16 -14 32 4 13 7 12 12 -4 4 -10 5 -23 2
-28z m-72 -46 c0 -5 -2 -10 -4 -10 -3 0 -8 5 -11 10 -3 6 -1 10 4 10 6 0 11
-4 11 -10z m65 -16 c0 -10 4 -25 8 -31 12 -19 -1 -16 -24 5 -12 12 -17 25 -13
36 8 22 29 15 29 -10z m115 -39 c0 -5 -5 -3 -10 5 -5 8 -10 20 -10 25 0 6 5 3
10 -5 5 -8 10 -19 10 -25z m-2697 11 c3 -8 -2 -16 -14 -19 -16 -4 -17 -2 -8
14 12 23 15 23 22 5z m-196 -18 c-3 -8 -6 -5 -6 6 -1 11 2 17 5 13 3 -3 4 -12
1 -19z m2933 -8 c0 -5 -5 -10 -11 -10 -5 0 -7 5 -4 10 3 6 8 10 11 10 2 0 4
-4 4 -10z m45 1 c3 -5 1 -12 -4 -15 -5 -3 -11 1 -15 9 -6 16 9 21 19 6z
m-2835 -79 c0 -11 -41 -45 -47 -39 -7 8 21 47 34 47 7 0 13 -3 13 -8z m3110
-32 c0 -5 -4 -10 -10 -10 -5 0 -10 5 -10 10 0 6 5 10 10 10 6 0 10 -4 10 -10z
m-3294 -117 c-11 -11 -17 4 -9 23 7 18 8 18 11 1 2 -10 1 -21 -2 -24z m3800
-57 c8 -8 14 -16 14 -19 0 -8 -36 -4 -48 6 -11 8 -11 12 0 18 17 11 17 11 34
-5z m239 -56 c3 -5 1 -10 -4 -10 -6 0 -11 5 -11 10 0 6 2 10 4 10 3 0 8 -4 11
-10z m-8500 -130 c3 -5 -1 -10 -9 -10 -9 0 -16 5 -16 10 0 6 4 10 9 10 6 0 13
-4 16 -10z m5705 -215 c7 -8 21 -15 31 -15 11 0 19 -4 19 -10 0 -14 -54 -12
-68 2 -14 14 -16 38 -3 38 5 0 14 -7 21 -15z m-5399 -57 c11 -21 11 -22 -4 -9
-10 7 -17 17 -17 22 0 15 9 10 21 -13z m5459 -128 c0 -5 -2 -10 -4 -10 -3 0
-8 5 -11 10 -3 6 -1 10 4 10 6 0 11 -4 11 -10z m380 -280 c0 -5 -4 -10 -10
-10 -5 0 -10 5 -10 10 0 6 5 10 10 10 6 0 10 -4 10 -10z m-5115 -20 c8 -13 -5
-13 -25 0 -13 8 -13 10 2 10 9 0 20 -4 23 -10z m2235 -27 c-1 -5 -12 -17 -26
-28 -14 -11 -56 -48 -92 -83 -37 -35 -79 -75 -94 -89 -16 -15 -25 -29 -22 -32
3 -3 10 2 15 12 6 9 15 17 21 17 15 0 -31 -49 -57 -61 -20 -10 -20 -10 -1 5
11 9 15 16 8 16 -6 0 -51 -36 -99 -80 -48 -44 -91 -80 -95 -80 -17 0 20 43
101 118 82 76 216 203 256 242 12 11 26 20 32 20 6 0 16 7 23 15 13 16 30 20
30 8z m2820 -3 c12 -8 11 -10 -7 -10 -13 0 -23 5 -23 10 0 13 11 13 30 0z
m-23 -102 c-3 -7 -5 -2 -5 12 0 14 2 19 5 13 2 -7 2 -19 0 -25z m63 2 c0 -13
-28 -25 -38 -16 -3 4 0 11 8 16 20 13 30 12 30 0z m-40 -50 c13 -8 13 -10 -2
-10 -9 0 -20 5 -23 10 -8 13 5 13 25 0z m-4615 -150 c3 -5 -1 -10 -9 -10 -9 0
-16 5 -16 10 0 6 4 10 9 10 6 0 13 -4 16 -10z m1515 5 c0 -2 -10 -9 -22 -15
-22 -11 -22 -10 -4 4 21 17 26 19 26 11z m-1915 -35 c3 -5 1 -10 -4 -10 -6 0
-11 5 -11 10 0 6 2 10 4 10 3 0 8 -4 11 -10z m5005 -5 c10 -12 10 -15 -4 -15
-9 0 -16 7 -16 15 0 8 2 15 4 15 2 0 9 -7 16 -15z m-3140 -10 c0 -2 -10 -9
-22 -15 -22 -11 -22 -10 -4 4 21 17 26 19 26 11z m-1585 -245 c3 -5 1 -10 -4
-10 -6 0 -11 5 -11 10 0 6 2 10 4 10 3 0 8 -4 11 -10z m4620 -160 c3 -5 4 -14
0 -20 -8 -13 -35 -1 -35 16 0 16 26 19 35 4z m-4215 -256 c0 -17 -22 -14 -28
4 -2 7 3 12 12 12 9 0 16 -7 16 -16z m4184 -35 c-3 -5 -10 -7 -15 -3 -5 3 -7
10 -3 15 3 5 10 7 15 3 5 -3 7 -10 3 -15z m-3964 -182 c0 -11 -172 -187 -184
-187 -11 0 47 70 114 138 40 41 51 58 47 75 -6 21 -6 21 8 3 8 -11 15 -24 15
-29z m67 -60 c17 -18 17 -19 -1 -33 -17 -12 -17 -14 -4 -14 17 0 34 -18 25
-26 -3 -3 -14 0 -26 7 -11 7 -23 10 -27 7 -7 -8 1 -17 76 -78 86 -70 102 -84
119 -100 9 -9 42 -35 74 -59 31 -24 57 -49 57 -56 0 -24 31 -73 57 -90 25 -17
85 -69 223 -195 36 -33 76 -67 88 -76 12 -8 20 -20 17 -25 -4 -5 -2 -9 2 -9 5
0 24 -16 43 -35 19 -19 52 -45 73 -57 20 -12 37 -25 37 -28 0 -13 77 -90 91
-90 11 0 11 -2 -1 -10 -11 -7 -11 -10 -2 -10 7 0 18 -5 25 -10 56 -47 74 -60
85 -60 7 0 17 -11 22 -24 8 -22 92 -98 150 -136 12 -8 28 -21 36 -27 7 -7 20
-13 28 -13 19 0 56 -35 56 -52 1 -14 24 -48 33 -48 3 0 26 -20 50 -45 25 -25
48 -45 52 -45 4 0 20 -12 34 -27 15 -16 40 -38 56 -50 39 -29 10 -31 -40 -3
-41 23 -48 9 -7 -17 15 -10 43 -33 62 -51 19 -18 49 -40 68 -49 18 -9 37 -26
42 -38 4 -12 34 -44 65 -71 32 -27 76 -66 99 -88 22 -21 61 -55 86 -74 25 -20
86 -75 135 -122 50 -47 107 -100 128 -118 20 -19 37 -38 37 -43 0 -5 6 -9 13
-9 6 0 31 -18 55 -40 24 -22 44 -40 45 -40 2 0 37 -33 79 -73 l77 -74 -16 -61
-15 -62 -42 -1 c-22 -1 -47 0 -55 1 -8 1 -53 -4 -100 -10 -120 -17 -152 -19
-356 -25 -99 -3 -227 -9 -285 -15 -153 -14 -290 -24 -330 -22 -19 0 -39 -3
-45 -7 -5 -5 -75 -12 -155 -15 -80 -4 -163 -9 -185 -12 -22 -3 -85 -8 -140
-10 -55 -3 -107 -8 -115 -11 -24 -11 -261 -29 -273 -21 -6 4 -19 2 -29 -3 -11
-6 -60 -12 -111 -15 -51 -3 -99 -8 -107 -11 -8 -3 -42 -7 -75 -9 -33 -1 -89
-8 -125 -14 -36 -6 -114 -15 -175 -20 -107 -8 -157 -14 -240 -27 -71 -10 -102
-14 -285 -28 -77 -6 -111 -12 -145 -25 -14 -5 -67 -12 -117 -16 -117 -7 -144
-10 -188 -18 -19 -3 -51 -9 -70 -11 -19 -3 -80 -12 -135 -20 -55 -8 -131 -17
-170 -20 -38 -3 -99 -10 -135 -15 -36 -6 -92 -12 -125 -15 -33 -2 -116 -11
-185 -21 -105 -14 -189 -19 -270 -16 -8 0 -59 -1 -112 -4 -84 -4 -97 -2 -92
11 4 8 17 15 30 15 15 0 24 6 24 15 0 8 5 15 12 15 24 0 88 81 88 111 0 22 5
29 20 29 20 0 41 17 122 98 26 26 57 57 70 70 12 12 27 22 33 22 5 0 27 18 49
40 21 22 43 40 48 40 17 0 47 44 48 68 0 12 8 26 17 29 25 10 94 86 107 118 6
14 10 16 13 7 3 -9 13 -4 29 15 38 44 40 47 48 76 5 20 12 26 29 24 18 -2 22
3 20 23 -1 14 1 19 3 13 7 -16 24 -17 24 -2 0 6 7 17 15 26 8 8 13 19 10 24
-4 5 -1 9 4 9 6 0 10 3 9 8 -3 14 14 42 27 42 7 0 15 7 19 15 3 8 15 15 26 15
16 0 20 6 20 34 0 30 3 33 21 29 27 -7 69 36 69 72 0 18 7 28 25 35 14 5 25
15 25 22 0 8 14 30 31 51 25 30 34 35 45 26 11 -9 14 -7 14 10 0 25 22 62 63
102 28 29 55 40 41 17 -4 -7 -3 -8 4 -4 7 4 12 20 12 35 0 26 13 46 76 112 13
14 24 29 24 33 0 4 9 17 20 29 11 12 27 44 35 71 13 43 13 52 1 64 -12 12 -15
11 -21 -7 -3 -11 -10 -21 -14 -21 -5 0 -20 -18 -35 -40 -14 -22 -22 -40 -16
-40 5 0 10 -4 10 -10 0 -5 -8 -10 -18 -10 -22 0 -62 -35 -62 -55 0 -8 -9 -15
-20 -15 -11 0 -20 -4 -20 -10 0 -5 -5 -10 -10 -10 -11 0 4 34 24 56 6 7 25 29
41 50 17 20 45 52 63 70 17 18 32 38 32 44 0 5 7 10 15 10 7 0 18 8 24 18 9
16 11 16 25 -3 8 -11 18 -17 22 -13 4 5 0 16 -10 27 -16 17 -14 21 30 80 25
33 49 61 54 61 9 0 50 66 50 81 0 20 -37 -11 -50 -41 -7 -16 -18 -30 -26 -30
-7 0 -23 -17 -34 -39 -12 -21 -42 -51 -66 -66 -28 -18 -44 -35 -44 -48 0 -21
-42 -63 -72 -73 -10 -3 -20 -15 -23 -27 -4 -12 -22 -38 -40 -56 -19 -19 -35
-38 -35 -43 0 -13 -26 -38 -40 -38 -18 0 20 60 68 107 23 23 42 46 42 51 0 5
12 22 28 39 93 100 162 189 162 208 0 9 11 20 24 25 13 5 27 18 31 29 3 12 13
21 20 21 8 0 20 11 27 24 7 13 44 57 81 97 38 40 81 89 95 108 14 20 42 52 62
72 51 51 98 112 109 143 6 14 17 26 26 26 8 0 15 7 15 15 0 8 9 15 20 15 11 0
20 5 20 11 0 6 7 27 16 46 12 24 20 31 28 23 7 -7 26 5 63 42 29 29 53 56 53
61 0 12 60 89 77 100 7 4 13 16 13 27 0 17 12 34 70 100 32 37 82 94 98 114 6
8 12 21 12 28 1 8 7 5 15 -7 8 -11 22 -28 32 -38z m148 -147 c4 0 24 -18 45
-40 21 -22 43 -40 48 -40 6 0 12 -4 14 -9 2 -5 31 -32 66 -61 64 -53 77 -87
19 -47 -33 22 -232 183 -276 223 -13 12 -20 27 -16 33 4 8 21 0 50 -24 24 -19
46 -35 50 -35z m-420 -9 c-3 -6 -16 -16 -28 -22 -21 -11 -21 -10 2 15 23 25
40 29 26 7z m3430 -51 c3 -5 1 -10 -4 -10 -6 0 -11 5 -11 10 0 6 2 10 4 10 3
0 8 -4 11 -10z m165 -30 c0 -12 -28 -25 -36 -17 -9 9 6 27 22 27 8 0 14 -5 14
-10z m60 -30 c0 -5 -4 -10 -10 -10 -5 0 -10 5 -10 10 0 6 5 10 10 10 6 0 10
-4 10 -10z m-1117 -966 c3 -3 3 -13 0 -21 -5 -12 -7 -12 -14 -1 -15 23 -4 40
14 22z m-3651 -326 c-7 -7 -12 -20 -12 -30 0 -10 -7 -21 -15 -24 -8 -4 -15
-12 -15 -20 0 -8 -4 -14 -10 -14 -19 0 -10 28 22 64 17 20 34 36 37 36 3 0 0
-5 -7 -12z m78 -13 c-7 -9 -15 -13 -19 -10 -3 3 1 10 9 15 21 14 24 12 10 -5z
m-79 -88 c-10 -9 -11 -8 -5 6 3 10 9 15 12 12 3 -3 0 -11 -7 -18z m-60 -95
c-4 -9 -6 -23 -4 -29 3 -7 -2 -13 -10 -13 -9 0 -22 -3 -31 -6 -12 -4 -16 0
-16 15 0 12 5 21 10 21 6 0 10 6 10 14 0 14 28 26 43 19 4 -2 3 -12 -2 -21z
m-91 2 c0 -8 -5 -12 -10 -9 -6 4 -8 11 -5 16 9 14 15 11 15 -7z m-48 -66 c-15
-15 -24 -6 -16 16 5 12 10 14 17 7 8 -8 8 -14 -1 -23z m16 -42 c-7 -8 -15 -12
-17 -11 -5 6 10 25 20 25 5 0 4 -6 -3 -14z m-178 -207 c0 -18 -2 -19 -15 -9
-8 7 -15 16 -15 21 0 5 7 9 15 9 9 0 15 -9 15 -21z m5200 -64 c0 -8 -4 -15
-10 -15 -5 0 -10 7 -10 15 0 8 5 15 10 15 6 0 10 -7 10 -15z m2400 -345 c0 -5
-2 -10 -4 -10 -3 0 -8 5 -11 10 -3 6 -1 10 4 10 6 0 11 -4 11 -10z m-2610
-230 c0 -5 -4 -10 -10 -10 -5 0 -10 5 -10 10 0 6 5 10 10 10 6 0 10 -4 10 -10z
m-572 -270 l57 -1 -31 -13 c-44 -19 -264 -25 -264 -7 0 13 39 21 46 9 4 -6 10
-6 17 1 6 6 33 11 59 11 31 0 48 4 49 13 0 10 2 10 6 0 3 -8 26 -13 61 -13z
m-340 -46 c-17 -16 -68 -7 -61 11 2 8 11 11 18 9 7 -3 16 0 20 6 5 8 11 8 21
-1 12 -10 13 -15 2 -25z m82 27 c0 -5 -7 -14 -15 -21 -12 -10 -18 -10 -31 1
-14 12 -14 14 3 20 26 11 43 11 43 0z m-199 -24 c-13 -13 -26 -3 -16 12 3 6
11 8 17 5 6 -4 6 -10 -1 -17z m-713 1 c-5 -15 -116 -41 -144 -34 -18 5 -20 2
-17 -18 5 -23 3 -24 -38 -19 -24 3 -51 12 -59 20 -13 14 -11 15 17 11 24 -3
33 0 36 14 4 14 16 18 54 20 66 2 71 2 79 11 13 12 76 8 72 -5z m622 -17 c0
-16 -28 -20 -47 -6 -17 13 -16 14 15 15 17 0 32 -4 32 -9z m-1020 -16 c0 -8
-8 -15 -19 -15 -10 0 -34 -7 -54 -15 -37 -15 -54 -10 -36 12 6 7 29 13 50 13
21 0 41 5 44 10 9 14 15 12 15 -5z m1585 5 c3 -5 2 -10 -4 -10 -5 0 -13 5 -16
10 -3 6 -2 10 4 10 5 0 13 -4 16 -10z m-1215 -10 c0 -5 -2 -10 -4 -10 -3 0 -8
5 -11 10 -3 6 -1 10 4 10 6 0 11 -4 11 -10z m290 0 c0 -5 -7 -7 -15 -4 -8 4
-15 8 -15 10 0 2 7 4 15 4 8 0 15 -4 15 -10z m-330 -10 c0 -5 -7 -10 -16 -10
-8 0 -12 5 -9 10 3 6 10 10 16 10 5 0 9 -4 9 -10z m87 4 c-3 -3 -12 -4 -19 -1
-8 3 -5 6 6 6 11 1 17 -2 13 -5z m713 -10 c0 -14 -3 -14 -15 -4 -8 7 -15 14
-15 16 0 2 7 4 15 4 8 0 15 -7 15 -16z m-1270 -15 c0 -5 -3 -9 -7 -9 -5 0 -18
-3 -30 -6 -17 -5 -23 -2 -23 9 0 16 26 26 48 19 6 -2 12 -8 12 -13z m1025 10
c10 -15 -1 -23 -20 -15 -9 3 -13 10 -10 16 8 13 22 13 30 -1z m-1485 -19 c0
-5 -4 -10 -9 -10 -6 0 -13 5 -16 10 -3 6 1 10 9 10 9 0 16 -4 16 -10z m335
-10 c-3 -5 -11 -10 -16 -10 -6 0 -7 5 -4 10 3 6 11 10 16 10 6 0 7 -4 4 -10z
m835 0 c8 -5 11 -10 5 -10 -5 0 -17 5 -25 10 -8 5 -10 10 -5 10 6 0 17 -5 25
-10z m65 0 c-3 -5 -13 -10 -21 -10 -8 0 -14 5 -14 10 0 6 9 10 21 10 11 0 17
-4 14 -10z m-110 -10 c3 -5 -1 -10 -9 -10 -9 0 -16 5 -16 10 0 6 4 10 9 10 6
0 13 -4 16 -10z m-1110 -30 c-5 -8 -11 -8 -17 -2 -6 6 -7 16 -3 22 5 8 11 8
17 2 6 -6 7 -16 3 -22z m-632 -31 c-14 -14 -92 -20 -112 -9 -14 8 12 18 84 33
26 5 43 -9 28 -24z m777 11 c0 -5 -5 -10 -11 -10 -5 0 -7 5 -4 10 3 6 8 10 11
10 2 0 4 -4 4 -10z m3500 -350 c0 -5 -4 -10 -10 -10 -5 0 -10 5 -10 10 0 6 5
10 10 10 6 0 10 -4 10 -10z"/>
<path d="M6735 10580 c-3 -5 -1 -10 4 -10 6 0 11 5 11 10 0 6 -2 10 -4 10 -3
0 -8 -4 -11 -10z"/>
<path d="M9460 10310 c0 -5 5 -10 11 -10 5 0 7 5 4 10 -3 6 -8 10 -11 10 -2 0
-4 -4 -4 -10z"/>
<path d="M5876 10173 c-6 -14 -5 -15 5 -6 7 7 10 15 7 18 -3 3 -9 -2 -12 -12z"/>
<path d="M10185 9310 c3 -5 13 -10 21 -10 8 0 12 5 9 10 -3 6 -13 10 -21 10
-8 0 -12 -4 -9 -10z"/>
<path d="M9735 8630 c-3 -5 -2 -10 4 -10 5 0 13 5 16 10 3 6 2 10 -4 10 -5 0
-13 -4 -16 -10z"/>
<path d="M10563 8583 c-22 -8 -14 -23 12 -23 14 0 25 4 25 9 0 5 8 12 18 14 9
3 4 5 -13 5 -16 0 -36 -2 -42 -5z"/>
<path d="M10520 8570 c0 -5 5 -10 11 -10 5 0 7 5 4 10 -3 6 -8 10 -11 10 -2 0
-4 -4 -4 -10z"/>
<path d="M10987 8427 c-3 -8 -1 -20 4 -28 6 -10 9 -7 9 14 0 29 -5 35 -13 14z"/>
<path d="M10970 8370 c0 -5 5 -10 10 -10 6 0 10 5 10 10 0 6 -4 10 -10 10 -5
0 -10 -4 -10 -10z"/>
<path d="M10876 8325 c-3 -8 -11 -15 -19 -15 -17 0 -93 -78 -84 -86 3 -4 20 0
36 7 34 17 108 109 87 109 -8 0 -16 -7 -20 -15z m-22 -40 c-7 -16 -24 -21 -24
-6 0 8 7 13 27 20 1 1 0 -6 -3 -14z"/>
<path d="M10696 8175 c-14 -14 -26 -30 -26 -36 0 -5 -11 -14 -25 -19 -27 -10
-43 -36 -30 -48 4 -4 10 -1 12 6 3 6 11 12 19 12 8 0 14 5 14 10 0 6 11 15 25
20 14 5 25 17 25 28 0 10 5 23 12 30 6 6 9 14 6 17 -3 4 -18 -6 -32 -20z"/>
<path d="M10540 8025 c-7 -8 -8 -15 -2 -15 5 0 15 7 22 15 7 8 8 15 2 15 -5 0
-15 -7 -22 -15z"/>
<path d="M10468 7978 c-10 -12 -18 -27 -18 -33 0 -5 7 -2 14 8 7 9 20 17 29
17 10 0 14 5 11 15 -8 20 -16 19 -36 -7z"/>
<path d="M10297 7814 c-16 -19 -34 -34 -40 -34 -6 0 -24 -15 -41 -32 -17 -18
-43 -42 -59 -53 -15 -11 -30 -28 -33 -37 -3 -9 -11 -15 -19 -12 -20 8 -65 -25
-65 -47 0 -13 -13 -24 -39 -35 -22 -9 -47 -27 -56 -40 -8 -13 -25 -24 -36 -24
-12 0 -23 -8 -26 -19 -2 -10 -43 -48 -89 -85 -46 -37 -84 -70 -84 -74 0 -4
-13 -15 -29 -25 -18 -10 -31 -28 -35 -47 -5 -26 -9 -29 -23 -21 -21 10 -52
-10 -72 -47 -6 -12 -18 -22 -27 -22 -14 0 -44 -25 -118 -96 -18 -18 -46 -39
-62 -47 -35 -19 -84 -64 -84 -77 0 -16 30 -11 56 9 16 13 20 21 12 23 -8 3 -5
9 10 17 20 11 22 10 22 -13 0 -14 -4 -28 -10 -31 -5 -3 -10 -12 -10 -18 0 -7
14 3 30 20 16 18 51 49 77 69 27 20 73 60 105 90 31 30 59 54 62 54 11 0 86
78 86 89 0 7 5 9 11 5 14 -8 69 45 69 68 0 10 3 17 8 16 11 -4 72 23 72 32 0
5 -6 11 -12 14 -7 3 -4 5 8 3 11 -1 31 9 45 23 13 14 36 31 52 38 28 12 35 26
17 37 -14 8 28 46 48 43 9 -2 17 2 17 7 1 20 16 34 30 28 11 -4 15 3 15 27 0
29 2 32 25 26 17 -4 25 -2 25 6 1 18 58 83 66 75 7 -7 94 81 94 95 0 4 6 8 14
8 8 0 16 7 20 15 3 8 12 15 21 15 8 0 15 5 15 10 0 22 -36 7 -63 -26z m-337
-344 c0 -5 -4 -10 -10 -10 -5 0 -10 5 -10 10 0 6 5 10 10 10 6 0 10 -4 10 -10z
m-332 -272 c-3 -7 -13 -15 -24 -17 -16 -3 -17 -1 -5 13 16 19 34 21 29 4z
m-124 -102 c-3 -7 -17 -19 -32 -25 l-27 -12 29 25 c33 30 37 31 30 12z"/>
<path d="M10180 7669 c0 -5 5 -7 10 -4 6 3 10 8 10 11 0 2 -4 4 -10 4 -5 0
-10 -5 -10 -11z"/>
<path d="M10086 7543 c-6 -14 -5 -15 5 -6 7 7 10 15 7 18 -3 3 -9 -2 -12 -12z"/>
<path d="M9191 6880 c-17 -17 -31 -35 -31 -40 0 -6 -6 -10 -14 -10 -7 0 -21
-11 -30 -25 -9 -14 -21 -25 -27 -25 -6 0 -28 -18 -50 -40 -22 -22 -45 -40 -52
-40 -7 0 -33 -22 -58 -48 -24 -26 -59 -59 -76 -72 -18 -13 -33 -27 -33 -31 0
-19 48 10 99 59 31 29 68 60 83 68 15 8 31 20 35 27 13 20 83 69 83 58 0 -20
20 -11 63 27 23 20 51 42 62 48 26 15 30 38 10 58 -22 22 -27 21 -64 -14z"/>
<path d="M8698 6453 c-21 -5 -24 -23 -4 -23 8 0 16 7 20 15 3 8 4 14 3 14 -1
-1 -10 -3 -19 -6z"/>
<path d="M8635 6390 c-23 -9 -59 -49 -51 -57 6 -6 76 49 76 60 0 8 1 8 -25 -3z"/>
<path d="M12166 8315 c4 -8 10 -12 15 -9 14 8 10 24 -6 24 -9 0 -12 -6 -9 -15z"/>
<path d="M5843 6715 c4 -9 7 -21 7 -26 0 -5 7 -9 15 -9 21 0 19 12 -7 34 -19
16 -20 17 -15 1z"/>
<path d="M6695 4380 c-10 -11 -16 -22 -13 -25 3 -3 13 4 23 15 10 11 16 22 13
25 -3 3 -13 -4 -23 -15z"/>
<path d="M6603 4347 c-24 -26 -47 -67 -37 -67 12 0 69 78 62 85 -2 3 -14 -5
-25 -18z"/>
<path d="M6550 4209 c0 -5 5 -7 10 -4 6 3 10 8 10 11 0 2 -4 4 -10 4 -5 0 -10
-5 -10 -11z"/>
<path d="M6496 4154 c-11 -7 -16 -17 -13 -21 4 -4 15 1 24 10 22 21 14 30 -11
11z"/>
<path d="M6447 4096 c-9 -7 -17 -18 -17 -25 0 -6 -3 -11 -7 -11 -12 -1 -45
-50 -35 -50 11 0 86 89 81 95 -2 2 -12 -2 -22 -9z"/>
<path d="M6770 13310 c0 -5 9 -10 20 -10 11 0 20 5 20 10 0 6 -9 10 -20 10
-11 0 -20 -4 -20 -10z"/>
<path d="M13990 7295 c7 -8 17 -15 22 -15 5 0 3 7 -6 15 -8 8 -18 15 -22 15
-3 0 -1 -7 6 -15z"/>
<path d="M5025 1746 c-17 -12 -17 -13 3 -11 26 2 37 11 24 19 -5 3 -17 -1 -27
-8z"/>
<path d="M4890 1720 c0 -5 7 -10 15 -10 8 0 15 5 15 10 0 6 -7 10 -15 10 -8 0
-15 -4 -15 -10z"/>
<path d="M12047 1239 c7 -7 15 -10 18 -7 3 3 -2 9 -12 12 -14 6 -15 5 -6 -5z"/>
</g>
</svg>
